# .PCD v0.7 - Point Cloud Data file format
VERSION 0.7
FIELDS x y z
SIZE 4 4 4
TYPE F F F
COUNT 1 1 1
WIDTH 2569
HEIGHT 1
VIEWPOINT 0 0 0 1 0 0 0
POINTS 2569
DATA ascii
0.23956054 -0.21324399 0.74804258
0.2450293 -0.21307446 0.74768978
0.25497156 -0.21315332 0.74772227
0.26272434 -0.21314998 0.74771011
0.23936866 -0.20448887 0.7456485
0.24497734 -0.20438883 0.74309677
0.25502658 -0.20455475 0.7431429
0.26258543 -0.20446146 0.74309021
0.23929594 -0.19493183 0.74512339
0.24496722 -0.19476905 0.74193591
0.25499615 -0.19476084 0.7419045
0.26235011 -0.19475482 0.74188167
0.23926474 -0.1851497 0.74488664
0.24497171 -0.18473271 0.74194944
0.25500029 -0.18472457 0.74191666
0.26235405 -0.18471856 0.74189264
0.23935767 -0.17587054 0.74601221
0.24501796 -0.17474474 0.74514675
0.25507826 -0.17477393 0.74508035
0.2628001 -0.17474632 0.74505818
0.23973468 -0.16882694 0.7485863
0.24500698 -0.16816907 0.74893987
0.25492102 -0.16826813 0.74883384
0.26255578 -0.16820629 0.74883199
0.23948307 -0.22200574 0.75489348
0.24496415 -0.22230695 0.75359839
0.2549473 -0.2223177 0.75363433
0.26307771 -0.2222937 0.75355393
0.23938763 -0.2149047 0.75387955
0.24510215 -0.21801952 0.75054717
0.25525281 -0.21801475 0.75053084
0.26269665 -0.21801157 0.75051999
0.23935466 -0.20500007 0.75363284
0.23932411 -0.19480573 0.75382227
0.23929203 -0.18490712 0.75357836
0.23926152 -0.1745277 0.7544418
0.23928714 -0.16497888 0.75571865
0.24506822 -0.16351706 0.75162297
0.2550844 -0.1633774 0.75165427
0.26280361 -0.16340256 0.75160182
0.23942204 -0.15838256 0.75872767
0.24499494 -0.15848456 0.75693011
0.25504303 -0.15838625 0.75701499
0.26288271 -0.15840951 0.75690824
0.23959804 -0.23059741 0.76762581
0.24524821 -0.23004968 0.7658025
0.25493625 -0.23006438 0.76585138
0.26254848 -0.23007536 0.76588792
0.23945592 -0.22433417 0.76539123
0.24503016 -0.22718477 0.76083523
0.25465432 -0.22719826 0.76088041
0.26221836 -0.22721012 0.76092017
0.23942055 -0.21458106 0.76485837
0.239389 -0.20539004 0.76402164
0.23935379 -0.19533443 0.76243705
0.2393201 -0.1849914 0.76233006
0.2392977 -0.17540663 0.76519895
0.23927037 -0.16493984 0.76672482
0.2393014 -0.15588428 0.76631027
0.2449594 -0.15387167 0.76491064
0.25501558 -0.15380183 0.76494628
0.26258102 -0.15395725 0.76461339
0.23956522 -0.23256905 0.77553195
0.24546854 -0.23295169 0.77083319
0.25522137 -0.2329677 0.77088612
0.26288286 -0.23297819 0.77092093
0.23948909 -0.22548386 0.77625215
0.23945783 -0.21528433 0.77599943
0.23943062 -0.2087165 0.77379328
0.23932087 -0.17243922 0.77495074
0.23930112 -0.16513123 0.77564281
0.23930144 -0.15501359 0.77519298
0.24528313 -0.15078317 0.77025127
0.25499073 -0.15077111 0.77018982
0.26261705 -0.15076165 0.77014154
0.23925292 -0.1497072 0.77548653
0.24479939 -0.14943026 0.77429235
0.25519383 -0.1494475 0.77389902
0.26321477 -0.14941026 0.77394718
0.2395405 -0.23245345 0.78560716
0.23951916 -0.22534643 0.7855373
0.23948832 -0.21539764 0.78543597
0.24184979 -0.21099623 0.78619581
0.23934548 -0.17096145 0.78419346
0.23932903 -0.16498281 0.7849136
0.23929746 -0.15504923 0.78481007
0.23947436 -0.1494953 0.78538835
0.24529071 -0.14915381 0.78359425
0.25513577 -0.14912377 0.78343648
0.26286757 -0.14909965 0.78330982
0.23956859 -0.23211236 0.79463303
0.23954801 -0.22520378 0.79504073
0.23951551 -0.21513359 0.7949329
0.24251166 -0.21041456 0.7906661
0.23967092 -0.20782351 0.79624206
0.24439628 -0.20669249 0.79661447
0.23944934 -0.17343086 0.79550689
0.24278608 -0.17778863 0.79787791
0.23935623 -0.16482559 0.79440433
0.23932455 -0.15477212 0.79429919
0.23929995 -0.1492946 0.79183954
0.2451047 -0.14662994 0.79633248
0.25494125 -0.146495 0.79607803
0.26193193 -0.14674662 0.79550552
0.23957317 -0.22445405 0.8043558
0.23954391 -0.21486351 0.80466384
0.23951328 -0.20467475 0.80456126
0.24496782 -0.20160986 0.8010301
0.23955354 -0.19592924 0.80591458
0.24468924 -0.19498418 0.80350643
0.25015014 -0.19359447 0.80375016
0.2395138 -0.18457143 0.80496842
0.24442144 -0.1856633 0.80282778
0.25014961 -0.18924361 0.80374837
0.23942067 -0.17522591 0.80443752
0.23938902 -0.16539547 0.80414373
0.23935883 -0.15675701 0.80323005
0.24159616 -0.15127297 0.80747873
0.24353534 -0.14346284 0.8039726
0.25506154 -0.14162011 0.80095798
0.2615537 -0.14161421 0.80092466
0.24512874 -0.13615309 0.80622214
0.25499484 -0.1359558 0.8059746
0.26173508 -0.13594994 0.80593985
0.23958854 -0.22200407 0.81219006
0.23957399 -0.21458764 0.81463975
0.2395456 -0.20500964 0.81454319
0.23951626 -0.19543321 0.81444341
0.23948233 -0.18512091 0.81432813
0.23944966 -0.17481244 0.81421691
0.23941837 -0.16515993 0.8136943
0.23939185 -0.15886247 0.81152326
0.2416098 -0.15439987 0.81677872
0.2415439 -0.14507523 0.81632984
0.24280059 -0.13376518 0.8144626
0.25516739 -0.13087384 0.8104741
0.26173663 -0.13086832 0.81043994
0.24511766 -0.12527689 0.81588238
0.25503397 -0.12510619 0.81558275
0.26173782 -0.12513773 0.81551486
0.23958854 -0.21140166 0.82224816
0.23957087 -0.20545255 0.82218754
0.23953839 -0.19504218 0.82207596
0.23950471 -0.18463376 0.82196039
0.239474 -0.1749718 0.82185501
0.24172057 -0.17137465 0.82956511
0.2416732 -0.16463375 0.82826835
0.2416061 -0.15510461 0.82662094
0.2415342 -0.14498976 0.82617861
0.24146248 -0.13489261 0.82612956
0.24139063 -0.12479424 0.82607979
0.24500747 -0.11546084 0.82470632
0.25505891 -0.11525252 0.82430899
0.2617403 -0.11524755 0.82427335
0.2453149 -0.10994297 0.82906693
0.25502247 -0.10993638 0.82901716
0.26174191 -0.1099316 0.82898104
0.24172385 -0.17244481 0.83474511
0.24166854 -0.16500433 0.83696896
0.24159764 -0.1551598 0.83712572
0.24152437 -0.14491396 0.8366707
0.24145165 -0.13468175 0.83621776
0.24138157 -0.1248408 0.83637714
0.24131197 -0.11500178 0.83573407
0.24477282 -0.10485904 0.83437485
0.25498489 -0.10454368 0.83379304
0.26174301 -0.10453909 0.83375651
0.24530493 -0.098424286 0.83926803
0.25513181 -0.098418288 0.83921689
0.26193389 -0.098413922 0.83917969
0.24164817 -0.16313165 0.84501344
0.24158789 -0.154708 0.84480274
0.24151212 -0.14444795 0.84721875
0.24144353 -0.13485385 0.84677207
0.24137212 -0.12488847 0.84693378
0.24130188 -0.11492542 0.84627509
0.24123059 -0.10496211 0.84643716
0.24452141 -0.09417446 0.84429204
0.25506338 -0.093546383 0.84353197
0.2617462 -0.093584716 0.84345752
0.2452174 -0.088103086 0.84848136
0.25511867 -0.087946892 0.84849054
0.26174781 -0.08801312 0.84839153
0.2416234 -0.1603152 0.85029143
0.24157691 -0.15407723 0.85230064
0.24151485 -0.14569864 0.85456431
0.24143751 -0.13498931 0.8550663
0.24136536 -0.12492412 0.85481077
0.24128774 -0.11416459 0.855757
0.24121942 -0.10475654 0.85725206
0.24114805 -0.094687887 0.85657591
0.24415095 -0.083848245 0.8541078
0.25502807 -0.082974724 0.85289443
0.26194069 -0.08336319 0.85250837
0.24500626 -0.077518828 0.85801131
0.2549898 -0.077274196 0.85794312
0.26194328 -0.077667519 0.85755223
0.24155058 -0.15145454 0.86096811
0.24150053 -0.14470035 0.86281568
0.24143124 -0.1351276 0.86354196
0.24135883 -0.12496083 0.86285454
0.24128929 -0.11536629 0.86357903
0.24117066 -0.1041222 0.86598217
0.23935704 -0.09338849 0.86993289
0.24089943 -0.095749885 0.86676079
0.24107166 -0.085038505 0.86482251
0.24438518 -0.073069468 0.86287922
0.25488448 -0.072266996 0.86237818
0.26189697 -0.072521009 0.8621102
0.24500522 -0.067232348 0.86704332
0.25492209 -0.067246549 0.86682409
0.26194781 -0.067244031 0.86678314
0.24146461 -0.14078881 0.87187552
0.24141797 -0.13458098 0.87430531
0.24134956 -0.12501197 0.87409753
0.2412786 -0.1151213 0.87406039
0.23951885 -0.10174611 0.87771893
0.24084027 -0.10616695 0.87451941
0.23867017 -0.094645016 0.87510449
0.24061599 -0.093182594 0.87165403
0.23765439 -0.086287148 0.87756366
0.24090061 -0.084917091 0.87392026
0.24099372 -0.075200483 0.87324774
0.24393557 -0.063254438 0.87228835
0.25496048 -0.062176917 0.87131357
0.26199937 -0.061911471 0.87150526
0.24534205 -0.056247804 0.87666726
0.25512183 -0.056193277 0.87661171
0.26192012 -0.056018222 0.87672478
0.24138789 -0.13144885 0.88310474
0.2413362 -0.12447651 0.88504887
0.24126808 -0.11504322 0.88559884
0.23873015 -0.10303242 0.88310701
0.24122226 -0.1089908 0.88836259
0.23669451 -0.095138803 0.885432
0.23553674 -0.083966069 0.88433999
0.24095993 -0.081115015 0.88153911
0.23560286 -0.076665066 0.88696313
0.24085714 -0.074968003 0.88408899
0.27215692 -0.073056869 0.88993657
0.24091071 -0.064999513 0.88451219
0.24295716 -0.053012051 0.8827849
0.25482783 -0.050940577 0.88126534
0.26191556 -0.05072872 0.88140929
0.24495974 -0.045710228 0.88612479
0.25498003 -0.045556203 0.8860485
0.26200855 -0.04543582 0.88611263
0.24130335 -0.12105522 0.89460546
0.24125706 -0.11457715 0.8944338
0.24120498 -0.1072919 0.89424068
0.23477513 -0.093210123 0.89331692
0.23279212 -0.085201174 0.89525414
0.22959486 -0.071675137 0.89774156
0.23349524 -0.073521152 0.89285994
0.24049485 -0.071583636 0.891608
0.27344954 -0.070575617 0.89240742
0.22878332 -0.065905489 0.89826161
0.23483735 -0.066431999 0.89678973
0.24077801 -0.06425 0.89538842
0.27441901 -0.06611941 0.8968538
0.24063851 -0.054912712 0.89514309
0.23991632 -0.042813715 0.8954528
0.24244694 -0.043927267 0.89170802
0.25535995 -0.04095396 0.89015394
0.26257452 -0.040951993 0.89011103
0.23943627 -0.035799272 0.89790022
0.24484634 -0.034737647 0.89576542
0.25487638 -0.034806151 0.89564627
0.26261324 -0.034393411 0.89596754
-0.11158494 0.05808856 0.89849454
-0.10531655 0.058328476 0.89803362
-0.096806616 0.058264248 0.89842945
-0.11123033 0.060892519 0.89999902
-0.1041509 0.063916393 0.89599383
-0.098469697 0.063003734 0.89766133
-0.10296015 0.070531756 0.89867944
0.24123988 -0.11305233 0.90161359
0.24118927 -0.1062365 0.90359443
0.22976989 -0.080950953 0.90641308
0.23115671 -0.083834253 0.90225536
0.22872998 -0.074923642 0.90554607
0.23014942 -0.078072228 0.90149391
0.22726889 -0.064795077 0.90435892
0.23500782 -0.061800871 0.901416
0.24008235 -0.061037887 0.90214759
0.27516362 -0.061676022 0.90128887
0.22685461 -0.056464083 0.90719062
0.23538251 -0.056144722 0.90684837
0.24027182 -0.055386316 0.90285963
0.27610564 -0.056212142 0.90674216
0.23961838 -0.045215819 0.90371168
0.23881395 -0.034351926 0.90660983
0.23875295 -0.025192833 0.90586132
0.24503683 -0.024374781 0.90501726
0.25508371 -0.02454586 0.90480679
0.2632471 -0.024375856 0.9049089
0.23887734 -0.018880339 0.909958
0.24461496 -0.018879682 0.90992624
0.2544497 -0.018878529 0.90987068
0.26346311 -0.018877421 0.90981734
-0.12384485 0.048126411 0.90834969
-0.1146818 0.048328307 0.90804172
-0.10485189 0.048328295 0.90804142
-0.095021993 0.04832828 0.90804112
-0.085454933 0.048245065 0.90828401
-0.079604261 0.046777762 0.90971208
-0.12196431 0.053698294 0.90736294
-0.11502875 0.054823507 0.90345937
-0.10484079 0.053769268 0.90259641
-0.094197638 0.054671429 0.90277272
-0.087052338 0.054433729 0.90658826
-0.11309799 0.064698309 0.90627468
-0.10681991 0.067533001 0.90192276
-0.094903775 0.0651787 0.9050076
-0.089442879 0.061543267 0.90961719
-0.1108214 0.071418241 0.90997458
-0.10372537 0.074326247 0.90534371
-0.098154828 0.072887041 0.907803
-0.10255771 0.081225708 0.90948951
0.24115157 -0.10222852 0.91391826
0.24112779 -0.099091962 0.91539562
0.22699206 -0.073282622 0.91279012
0.22491246 -0.064905994 0.91484511
0.22411127 -0.053334374 0.91403991
0.23533152 -0.051015351 0.9121244
0.27641878 -0.051005144 0.91194296
0.28134555 -0.051003471 0.91191292
0.21971124 -0.046430122 0.91906404
0.22501397 -0.046323154 0.9170242
0.23591292 -0.045634501 0.91560006
0.27638978 -0.046442337 0.9165023
0.28250077 -0.045908149 0.91699719
0.23826954 -0.034061559 0.91646928
0.23778059 -0.024770727 0.91522455
0.23798993 -0.015084616 0.91466755
0.24495558 -0.014016041 0.914267
0.25500184 -0.014014999 0.91420996
0.26357719 -0.013792233 0.91435736
0.23868011 -0.0091162547 0.91867757
0.24530013 -0.0091158859 0.91864043
0.25522897 -0.0091153216 0.91858363
0.26510835 -0.008497756 0.91907561
-0.14175019 0.037716914 0.91889715
-0.13502617 0.038105026 0.91827345
-0.12469521 0.038166199 0.91821194
-0.11431717 0.038105 0.91827273
-0.10437652 0.038104992 0.9182725
-0.094435841 0.03810497 0.91827208
-0.084495194 0.038104963 0.91827172
-0.074554563 0.038104948 0.91827148
-0.068242304 0.037850764 0.91879463
-0.14023791 0.042320319 0.91985232
-0.13428029 0.043890886 0.91533214
-0.12541527 0.043075733 0.91343272
-0.11537424 0.042849738 0.91352445
-0.10548499 0.042849731 0.91352397
-0.095374301 0.042755142 0.91361839
-0.08508189 0.042818312 0.91355497
-0.075531349 0.044165432 0.91512221
-0.068870202 0.040658314 0.91979837
-0.13174203 0.052201819 0.91847587
-0.12660651 0.054982379 0.91445398
-0.082740307 0.055670865 0.91386545
-0.077989712 0.051928092 0.91729558
-0.12226854 0.062744699 0.91646588
-0.11719856 0.066125326 0.91313034
-0.092046618 0.068067297 0.91220653
-0.086745866 0.063700542 0.91584378
-0.11395132 0.073566899 0.91626596
-0.10717683 0.077757381 0.91211551
-0.094772346 0.074900135 0.91491991
-0.08876574 0.070514835 0.91960424
-0.11013925 0.080327123 0.91797286
-0.10403105 0.084446229 0.91557032
-0.098082878 0.082090743 0.917108
-0.10285614 0.090413854 0.91949177
0.22279273 -0.062923566 0.92300755
0.21919611 -0.053157888 0.92690843
0.22092453 -0.056277659 0.92351741
0.21751572 -0.044488322 0.92496347
0.22449666 -0.041572753 0.92169166
0.23442729 -0.041564632 0.92150897
0.27722517 -0.041672166 0.92126322
0.28381827 -0.041468401 0.92142558
0.21660006 -0.036794439 0.92705065
0.22482753 -0.036771376 0.92648727
0.23500964 -0.036159415 0.92587829
0.27696297 -0.036988575 0.92594481
0.28448454 -0.036611073 0.92627525
0.29040074 -0.035148647 0.92770016
0.23722482 -0.025060922 0.925946
0.23672737 -0.015005699 0.92400414
0.2369432 -0.0049329051 0.92458481
0.24512409 -0.0041580186 0.92297387
0.25509995 -0.004157763 0.92291743
0.26394761 -0.0037059018 0.92325592
0.23690395 0.0016748686 0.92795134
0.24442698 0.0016747937 0.92790979
0.25464994 0.0025146909 0.92855901
0.26468524 0.0025145323 0.92850041
-0.15454444 0.028377328 0.92824554
-0.14565422 0.028460434 0.92792553
-0.13560905 0.028460426 0.92792535
-0.12556389 0.028460419 0.92792511
-0.11551875 0.028460404 0.92792463
-0.1054736 0.028460396 0.92792445
-0.095428444 0.028460383 0.92792392
-0.085383326 0.02846037 0.92792362
-0.075338207 0.028460367 0.92792344
-0.065293081 0.028460354 0.92792296
-0.057293277 0.028347224 0.92813069
-0.15237984 0.032818552 0.92682356
-0.1453196 0.034328289 0.92365646
-0.1349005 0.033305138 0.92307693
-0.12490781 0.03330512 0.92307663
-0.11491516 0.033305109 0.92307615
-0.1049225 0.033305097 0.92307597
-0.094929844 0.033305086 0.92307568
-0.084937192 0.033305079 0.92307538
-0.074944563 0.033305068 0.92307502
-0.064799845 0.034588572 0.92392153
-0.058457904 0.032637697 0.92763823
-0.14350103 0.044049326 0.92590076
-0.13836168 0.047786899 0.92282999
-0.071673833 0.047428068 0.92233169
-0.067066595 0.044076294 0.92593622
-0.13484076 0.054807521 0.92518258
-0.12884393 0.059018835 0.92144978
-0.080544882 0.058955532 0.92046142
-0.074907124 0.055229113 0.92524701
-0.069574356 0.051132962 0.92920274
-0.13204448 0.061695158 0.92836189
-0.12599288 0.065607883 0.92425805
-0.082985163 0.06622728 0.92404485
-0.078451805 0.06297332 0.92763549
-0.12225559 0.072937347 0.92663288
-0.11736082 0.076528832 0.92374009
-0.0916235 0.077365324 0.92213589
-0.087021768 0.074451193 0.92616975
-0.1132796 0.084047228 0.92584801
-0.10686143 0.088077553 0.92232293
-0.094919093 0.085259266 0.9250493
-0.089673042 0.081292383 0.92900383
-0.10409287 0.094582506 0.92566073
-0.098514594 0.093079239 0.92743629
-0.10318437 0.10150658 0.92992556
0.217674 -0.053295583 0.93284535
0.2150225 -0.045703899 0.93517512
0.21378236 -0.034269404 0.93375647
0.22516339 -0.031925421 0.93132752
0.23398656 -0.032012641 0.93114972
0.27799839 -0.031914491 0.93100852
0.28554338 -0.031912949 0.93096352
0.29141134 -0.031911749 0.93092847
0.20922336 -0.027106889 0.93897194
0.2147748 -0.027126413 0.93629527
0.22507988 -0.027022913 0.93622679
0.23446126 -0.026024466 0.93593323
0.27777144 -0.027014265 0.93590653
0.2850776 -0.026302539 0.93657279
0.29283091 -0.025674101 0.93715286
0.23586917 -0.014852443 0.93457896
0.23450784 -0.0050645224 0.93509483
0.23515648 0.0056053628 0.93364322
0.24512561 0.0067305323 0.93216181
0.25497523 0.007575369 0.93281692
0.26477659 0.0075748051 0.93275958
0.27030367 0.0084213186 0.93343979
-0.17196175 0.018212656 0.93901789
-0.16496648 0.018610938 0.93778306
-0.15526392 0.018686341 0.93770736
-0.14550944 0.018610926 0.9377827
-0.13535759 0.018610917 0.93778211
-0.12520571 0.018610915 0.93778187
-0.11505388 0.018610906 0.93778157
-0.10490202 0.018610902 0.93778133
-0.094750173 0.018610893 0.93778092
-0.084598333 0.018610889 0.93778068
-0.074446514 0.018610882 0.9377802
-0.064294696 0.018610872 0.9377799
-0.054988861 0.018610869 0.93777955
-0.045695852 0.018616833 0.9380672
0.23536724 0.012787517 0.93752748
0.24517602 0.012683251 0.93717247
0.25555313 0.013025358 0.93740094
0.26500297 0.013501843 0.93774748
0.27112398 0.01410934 0.93822318
-0.17013714 0.021161336 0.93830156
-0.16392471 0.024532391 0.93503302
-0.15499918 0.023793008 0.93278122
-0.14474115 0.02355881 0.93283099
-0.1346429 0.023558797 0.93283063
-0.12454463 0.023558786 0.93283027
-0.11464193 0.023451852 0.93293679
-0.10476778 0.023558779 0.9328298
-0.094874188 0.023522958 0.9328652
-0.084991686 0.023558753 0.9328289
-0.075110264 0.023594312 0.93279302
-0.065447271 0.023665925 0.93272108
-0.0550448 0.024457993 0.93280131
-0.047558133 0.024415938 0.9364416
-0.16229707 0.03189506 0.93864512
-0.15604356 0.035984136 0.93445027
-0.061249532 0.03943463 0.93007779
-0.055451144 0.035566539 0.93496418
-0.049978118 0.031342208 0.93900359
-0.15217933 0.043085329 0.93642873
-0.14729933 0.047042236 0.93392062
-0.063357763 0.046425752 0.93388194
-0.058614906 0.042554919 0.93717241
-0.14297031 0.054060973 0.93520129
-0.13772912 0.058626015 0.93282253
-0.071823142 0.058358401 0.93302888
-0.066988081 0.053883325 0.93585479
-0.14152068 0.060167477 0.93938327
-0.1345427 0.065054923 0.93502682
-0.12862509 0.069777012 0.93190932
-0.075058453 0.065162241 0.93494457
-0.068659589 0.060183093 0.93962711
-0.13149585 0.071457624 0.93738979
-0.12589358 0.075556166 0.93406683
-0.082716882 0.075782776 0.93399799
-0.077581793 0.072222851 0.93819147
-0.12252659 0.082642727 0.93668908
-0.11709297 0.08693479 0.93378276
-0.091710396 0.08806619 0.93269712
-0.086757801 0.083668105 0.93577778
-0.11339479 0.094092689 0.9360379
-0.10776825 0.097344778 0.9318369
-0.094756506 0.094838291 0.93486619
-0.088983834 0.090678766 0.93942302
-0.11105286 0.10088007 0.93971854
-0.10389514 0.10433719 0.93565047
-0.097981535 0.10233347 0.93748772
-0.10252836 0.11100178 0.93928641
0.21195929 -0.042560022 0.94362384
0.20904067 -0.033848248 0.94582343
0.21086435 -0.0374116 0.9425258
0.20730667 -0.024797905 0.94454157
0.21526709 -0.022151204 0.9411571
0.22499563 -0.022074366 0.94117236
0.23301847 -0.021954712 0.94124144
0.27838981 -0.022066738 0.94084668
0.28474185 -0.021473503 0.94140035
0.29474455 -0.0212352 0.94157678
0.20647399 -0.016931264 0.94693744
0.21511018 -0.017068466 0.94623685
0.22512659 -0.017176833 0.94606531
0.23350349 -0.015807765 0.94500488
0.27858835 -0.017061429 0.94584721
0.28522414 -0.016710503 0.9461568
0.29477483 -0.016218618 0.94658947
0.30117485 -0.01341658 0.94935006
0.23326334 -0.0047858832 0.9445101
-0.16305186 0.008670982 0.9477306
-0.15522078 0.0086269584 0.94777435
-0.1453616 0.0085499166 0.94785112
-0.13510075 0.0085499138 0.94785076
-0.12483987 0.008549911 0.94785047
-0.11457902 0.0085499091 0.94785023
-0.10471498 0.0084728673 0.94792694
-0.095370673 0.0086269416 0.94777244
-0.085506648 0.0085498989 0.94784921
-0.07524582 0.0085498961 0.94784886
-0.064985 0.0085498923 0.9478485
-0.054724187 0.0085498905 0.94784814
-0.044848785 0.008626923 0.94777071
0.23187156 0.0051116333 0.94497806
-0.17260481 0.015709776 0.94137758
-0.16479355 0.013713794 0.94268411
-0.15479198 0.013604303 0.94279307
-0.14478704 0.013495074 0.94290209
-0.13480389 0.013604292 0.94279248
-0.12480577 0.013567707 0.94282907
-0.11503415 0.013640607 0.94275576
-0.10526486 0.013713764 0.94268221
-0.095256418 0.013604275 0.94279146
-0.085050344 0.013604271 0.94279099
-0.074844271 0.013604266 0.94279051
-0.064638205 0.013604256 0.94279033
-0.054432157 0.013604254 0.94278985
-0.044619169 0.013451814 0.94294226
-0.037384663 0.016098427 0.94408
0.22978385 0.018792454 0.94690537
0.23331317 0.016358498 0.94313705
0.2446133 0.017838135 0.94151455
0.25441521 0.018052705 0.94163907
0.2651684 0.018698432 0.94212085
0.27195606 0.018697632 0.94208068
-0.17286217 0.0247405 0.94548613
-0.16819198 0.028646985 0.94320536
-0.042857826 0.02616249 0.94457448
-0.038068846 0.022671584 0.94831431
0.22917759 0.02394552 0.94793636
0.23506804 0.023877945 0.94665295
0.24487205 0.023952376 0.94665956
0.25489154 0.023912838 0.94656891
0.26490808 0.024025025 0.94660604
0.27236822 0.023910234 0.94646621
-0.17039162 0.031680856 0.94914931
-0.16468625 0.035302319 0.94521308
-0.15895653 0.039951641 0.94227165
-0.051435389 0.036984384 0.94244218
-0.046949945 0.034084015 0.94631386
-0.16157903 0.041893091 0.94768405
-0.15622227 0.045383129 0.94407809
-0.060240407 0.048362017 0.9405219
-0.054607391 0.044542667 0.9452073
-0.0488314 0.040264487 0.94965023
-0.15234867 0.052238233 0.94579834
-0.14742123 0.056571554 0.94360352
-0.06275811 0.055550519 0.94390523
-0.058010519 0.052150868 0.94767368
-0.14325653 0.064094082 0.94560516
-0.13813674 0.067582451 0.94231135
-0.071523212 0.067154169 0.94227105
-0.066815332 0.063808441 0.94603348
-0.13491745 0.074754506 0.94521457
-0.12898663 0.078070313 0.94067448
-0.080585927 0.078889377 0.94031847
-0.075004466 0.075009778 0.94486636
-0.069376878 0.071089886 0.94944346
-0.13134736 0.081771404 0.9474985
-0.1260162 0.085963726 0.944628
-0.083176196 0.086186066 0.94369978
-0.078511171 0.082909465 0.94746685
-0.12192193 0.09352354 0.9467603
-0.11687538 0.096611857 0.94316369
-0.091903962 0.097734049 0.94206524
-0.08712361 0.09416718 0.94571644
-0.11370801 0.10424702 0.94659847
-0.10722275 0.10770689 0.94222414
-0.095385857 0.10545341 0.94452298
-0.089835063 0.10095824 0.94840956
-0.11035029 0.11035029 0.94825065
-0.10383215 0.11475474 0.94574845
-0.098282658 0.11269243 0.947384
-0.10283159 0.12082715 0.94991505
0.20683253 -0.032765884 0.95312667
0.20420964 -0.024989085 0.95515698
0.19979721 -0.012109372 0.95877528
0.20338592 -0.014625615 0.95341223
0.21454294 -0.012013644 0.95129156
0.2248258 -0.012012832 0.95122737
0.23168033 -0.012012292 0.95118457
0.27878958 -0.012008635 0.95089501
0.28414959 -0.011838809 0.95103168
0.29531944 -0.011160329 0.95164078
0.30217409 -0.011159839 0.951599
-0.15198776 -0.00086356688 0.95727193
-0.14521052 -0.0017294787 0.95813823
-0.13483831 -0.001729478 0.95813799
-0.12446608 -0.0017294775 0.95813769
-0.11495823 -0.0017294768 0.95813733
-0.10545036 -0.0017294761 0.95813704
-0.095078163 -0.0017294757 0.95813662
-0.084705971 -0.0017294749 0.95813626
-0.074732415 -0.0018081936 0.95821482
-0.065291658 -0.0016507547 0.95805687
-0.058246739 -0.0015562914 0.95796204
0.19895503 -0.0065444126 0.95829356
0.20514287 -0.007010703 0.95635033
0.21504755 -0.0069354861 0.95636284
0.22495328 -0.0068605547 0.95637494
0.2316678 -0.0051653292 0.95468432
0.27921879 -0.0066090706 0.95628804
0.2850183 -0.006895253 0.95596629
0.29491717 -0.0068950946 0.95590538
0.3027803 -0.0065271296 0.9562245
-0.16118544 0.0060015852 0.9504019
-0.15407085 0.0038634848 0.95254153
-0.14463055 0.0033232819 0.95308173
-0.13496944 0.0034345961 0.95297009
-0.12531194 0.0035467385 0.95285732
-0.11519783 0.0034348748 0.95296884
-0.10488155 0.003434873 0.95296878
-0.094565295 0.003434872 0.95296836
-0.084652893 0.0032791265 0.95312399
-0.075248338 0.0035906136 0.95281196
-0.065335952 0.0034348676 0.95296735
-0.055200659 0.0035467304 0.95285505
-0.047532592 0.0053187506 0.9510814
0.22940293 0.0095223859 0.95960492
0.23068555 0.0051613608 0.95417696
0.22917902 0.015505201 0.95507288
-0.17409663 0.028301423 0.95067859
-0.040303241 0.02829802 0.95056427
-0.036524449 0.025735641 0.95370728
0.22794323 0.024990382 0.95531791
0.23491114 0.028292224 0.9503696
0.24518366 0.028290428 0.95030928
0.25545487 0.028288633 0.95024896
0.264869 0.028286984 0.95019358
0.27257064 0.028285634 0.95014817
-0.17308818 0.034402642 0.95543939
-0.16891749 0.037395764 0.9529075
-0.042775396 0.035490632 0.95402032
-0.037896115 0.031973444 0.95787019
0.22775204 0.034514844 0.95632076
0.23519368 0.034515273 0.9556061
0.24509655 0.034435038 0.95548171
0.25483966 0.034537543 0.95551234
0.26488456 0.034483328 0.95540917
0.27379826 0.034755193 0.95558673
-0.17022614 0.040612329 0.95785421
-0.16469473 0.044733521 0.9546476
-0.15868816 0.048893105 0.95085031
-0.05166927 0.047253501 0.95235097
-0.046830669 0.043791533 0.95619446
-0.16222268 0.051577091 0.9582122
-0.15623957 0.055660576 0.95436996
-0.060870349 0.059155691 0.95035708
-0.055132546 0.055137988 0.95500255
-0.049347047 0.051078521 0.95967829
-0.15206169 0.063199602 0.95637065
-0.14711131 0.067027085 0.95363998
-0.063416734 0.066458896 0.95381165
-0.058621798 0.063067429 0.95765984
-0.14336595 0.074370913 0.95601839
-0.13790658 0.077454828 0.9518708
-0.072397195 0.077835515 0.95162511
-0.067363873 0.074483156 0.95587254
-0.14101279 0.080455147 0.95898157
-0.13498408 0.084781468 0.95532149
-0.12967516 0.088453926 0.95196122
-0.081428371 0.089999773 0.95014852
-0.074944556 0.085041977 0.95498103
-0.069986135 0.080354452 0.95778131
-0.13140236 0.092500821 0.95829177
-0.126113 0.095446758 0.95423144
-0.082691871 0.096066765 0.95430362
-0.078249313 0.091775 0.95672065
-0.12241444 0.10341854 0.95729929
-0.11758886 0.10648055 0.95396906
-0.091289528 0.10718793 0.95243907
-0.086973652 0.10400894 0.95577669
-0.11304996 0.11391241 0.95538455
-0.10696634 0.11850619 0.95290571
-0.094867073 0.11497071 0.95481592
-0.10396206 0.12465484 0.9557271
-0.098180436 0.12265534 0.95749336
-0.2917707 -0.046677142 0.9689337
-0.28494665 -0.044698495 0.96726233
-0.2749154 -0.04439757 0.9661845
-0.26490843 -0.044351313 0.96651894
-0.25694519 -0.04513922 0.96843582
-0.28314263 -0.035490025 0.96857733
-0.27494594 -0.035029147 0.96696168
-0.26557475 -0.035050061 0.96794802
-0.25934398 -0.038048565 0.96959656
-0.28082496 -0.028869854 0.96977288
-0.27387524 -0.028156754 0.96932709
-0.26719069 -0.028424416 0.96950412
0.19977114 -0.02006435 0.9670226
0.20168564 -0.023104748 0.96284229
-0.13416137 -0.01215399 0.96857047
-0.12495793 -0.012234442 0.96865052
-0.11534575 -0.012234438 0.96865016
-0.10485971 -0.012234434 0.96864992
-0.094778396 -0.012314885 0.96873003
-0.085230701 -0.012153969 0.96856862
-0.075835362 -0.012057418 0.96847171
0.19849084 -0.01450293 0.96620637
0.20042156 -0.017354773 0.96177131
-0.14326252 -0.0060810968 0.96249318
-0.13515629 -0.0067973253 0.96320987
-0.12514563 -0.0069564856 0.96336848
-0.11471678 -0.0069564828 0.96336818
-0.10469949 -0.007115643 0.96352732
-0.095185682 -0.0067973151 0.96320826
-0.085168421 -0.0069564753 0.96336728
-0.074739613 -0.0069564725 0.96336699
-0.066125549 -0.0059351828 0.96234447
0.19635281 -0.004527227 0.9648242
0.20472859 -0.0017342089 0.96162552
0.21512383 -0.0017340906 0.96155983
0.22510523 -0.0018126852 0.96141821
0.23005456 -0.00086813042 0.9623307
0.27981198 -0.0025988729 0.96029162
0.28480721 -0.0016546254 0.96120447
0.29477587 -0.0017331974 0.9610644
0.30429423 -0.0017330919 0.96100581
0.19547464 0.0034936338 0.96735913
0.20496683 0.003493055 0.96684736
0.21476288 0.0036065704 0.9668988
0.22587539 0.0044154902 0.96603155
0.2300849 0.001736203 0.96245766
0.28527388 0.0033661048 0.96621859
0.29506773 0.0034907255 0.96628267
0.30507267 0.0034902131 0.96622032
0.3114976 0.0043663122 0.96722132
0.22801615 0.015260491 0.96440029
0.22657271 0.024785906 0.96566314
-0.1744009 0.039044976 0.96181607
-0.040729243 0.038996086 0.9606117
-0.036911789 0.036442313 0.96382159
0.2252344 0.03457626 0.96507454
-0.17278211 0.044825789 0.96544868
-0.16787739 0.048088498 0.96221411
-0.043229166 0.046304334 0.96414149
-0.038568139 0.042409498 0.9672845
0.22563002 0.045307029 0.96570522
0.2349747 0.045262188 0.96471417
0.24496289 0.045182303 0.9645884
0.25510162 0.045231409 0.96457171
0.26524055 0.045280341 0.96455503
0.27509043 0.045333315 0.96454334
0.28125697 0.047606617 0.96644986
-0.17048705 0.051583257 0.96916145
-0.16448474 0.055076323 0.96470386
-0.15881193 0.059879906 0.96199185
-0.052353486 0.057850584 0.9619078
-0.047175068 0.05437167 0.96624732
0.26513347 0.051626664 0.96997702
0.27474234 0.051623572 0.96991891
0.28172994 0.051621325 0.96987665
-0.16148877 0.061979145 0.96763378
-0.15623473 0.065505594 0.96420026
-0.055106163 0.06521102 0.9651081
-0.049829416 0.0611948 0.96905923
-0.15233555 0.072790481 0.9663161
-0.14763764 0.076518342 0.96382016
-0.062636681 0.075886816 0.96441007
-0.058160741 0.071833424 0.96711546
-0.14325693 0.084535323 0.96603
-0.13838775 0.0873404 0.96238518
-0.071432918 0.087503292 0.96274078
-0.066863313 0.083833165 0.96597075
-0.13495839 0.094655573 0.9651534
-0.12929669 0.098926082 0.96192354
-0.080628701 0.099702157 0.96105021
-0.075058796 0.095126301 0.964885
-0.069047615 0.090024114 0.96885991
-0.13188416 0.10175125 0.96817249
-0.12633644 0.10571599 0.96478802
-0.082837753 0.10591665 0.96392548
-0.078189604 0.10263366 0.96766084
-0.12226569 0.11267791 0.96635395
-0.11734974 0.11640248 0.96356606
-0.091811605 0.11750014 0.96195507
-0.087238654 0.11420176 0.96556151
-0.29479331 -0.054735631 0.97630066
-0.28506827 -0.054476079 0.97596788
-0.27493706 -0.054715928 0.97614986
-0.26501414 -0.054592419 0.97598726
-0.25491199 -0.054287825 0.97579002
-0.24803689 -0.054195538 0.97741073
-0.2952303 -0.045198031 0.97398853
-0.28480309 -0.049950082 0.97140586
-0.27515891 -0.049949218 0.97138911
-0.26463485 -0.049947634 0.9713583
-0.25303531 -0.045454118 0.97240698
-0.24801953 -0.044739198 0.97791594
-0.29434034 -0.035311077 0.97484583
-0.28755918 -0.03376678 0.97084808
-0.26061484 -0.031227104 0.97052926
-0.25460127 -0.034964118 0.97303337
-0.24829002 -0.035822343 0.9780854
-0.29267412 -0.026371105 0.9774704
-0.28493902 -0.024470689 0.97400653
-0.27538249 -0.023316601 0.97243935
-0.26453269 -0.023960838 0.97304118
-0.25594762 -0.025478672 0.97638655
-0.24991813 -0.029142398 0.97892791
-0.1236565 -0.020940945 0.97736353
-0.11464634 -0.021166293 0.97758883
-0.10494546 -0.021166285 0.97758847
-0.095244586 -0.021166278 0.97758818
-0.087644488 -0.020985987 0.97740746
-0.28291839 -0.018095825 0.9785248
-0.27478987 -0.016979687 0.97787249
-0.2659668 -0.017357474 0.97841007
-0.13205752 -0.01560921 0.97202814
-0.12465416 -0.016681224 0.97310078
-0.1149978 -0.01668122 0.9731003
-0.10534146 -0.016681217 0.97310001
-0.09480729 -0.016681211 0.97309971
-0.085150957 -0.016681204 0.97309917
-0.078459471 -0.015341723 0.9717586
0.19633067 -0.013457769 0.97304153
0.18987575 -0.0017668211 0.97897232
0.19302537 -0.0055340729 0.97443336
0.31390783 -0.0035322681 0.97744858
0.18795376 0.0061622346 0.97620946
0.1935066 0.0070677786 0.97215879
0.20520872 0.0087704035 0.97211909
0.21530119 0.0086893821 0.97197455
0.22400934 0.0088676391 0.97209752
0.28619665 0.0086675249 0.97151059
0.29490995 0.008845713 0.97163486
0.30498511 0.0087647364 0.97149104
0.31414255 0.008285013 0.97240001
0.18690288 0.013225631 0.97728878
0.19530685 0.013112386 0.97651941
0.20495841 0.013328393 0.97667491
0.2149426 0.013215831 0.9764998
0.22486785 0.014120432 0.97512323
0.28685346 0.013849494 0.97668463
0.29500359 0.014143262 0.97692764
0.30489627 0.014103039 0.97682548
0.31459609 0.014183721 0.97684532
0.32043064 0.01588993 0.97851336
0.22524846 0.024636675 0.97536713
0.22320788 0.035354476 0.97490919
-0.17427045 0.048165198 0.97075593
-0.04116435 0.04992272 0.97087377
-0.0369565 0.046063755 0.97336864
0.2197945 0.04766589 0.97849101
0.22126824 0.044826802 0.97439265
-0.17324151 0.054497622 0.97572058
-0.16861315 0.057375573 0.9724676
-0.04306915 0.056327298 0.97439873
-0.038562525 0.052228343 0.97710478
0.2187068 0.055337321 0.9767915
0.22466406 0.055158671 0.97343606
0.23495759 0.055123914 0.97313893
0.2449542 0.055318527 0.97324735
0.25512496 0.055378556 0.9732399
0.26511094 0.056111868 0.97380865
0.27497676 0.056229353 0.97385192
0.2829687 0.056621872 0.97414118
-0.17031893 0.060891222 0.978239
-0.16466998 0.065030545 0.974895
-0.15853654 0.069195502 0.97093499
-0.051310502 0.067873992 0.97349823
-0.0470099 0.063802421 0.97592062
0.2178247 0.061655842 0.97916335
0.224723 0.06190202 0.97898823
0.23488753 0.061813246 0.9788537
0.24504852 0.06172448 0.97871912
0.25470269 0.061890438 0.97880512
0.2648612 0.061801683 0.9786706
0.27501622 0.061712924 0.97853607
0.2837857 0.06189806 0.97864366
-0.16214514 0.072097175 0.97861248
-0.15599428 0.075423278 0.9737913
-0.060474243 0.079755887 0.97154009
-0.055033755 0.074943207 0.97494256
-0.1527119 0.083077013 0.97709239
-0.1476281 0.086160205 0.97344142
-0.062762842 0.085739717 0.97406489
-0.057932418 0.082342207 0.977961
-0.14329714 0.093886599 0.97542655
-0.13806352 0.097713545 0.97232038
-0.071760133 0.09772934 0.97246486
-0.067148209 0.093972929 0.97567254
-0.14048323 0.10160737 0.97941494
-0.13432698 0.10524351 0.97489643
-0.12890981 0.10961718 0.9720934
-0.07542409 0.10531914 0.97451848
-0.069791585 0.10159534 0.97929907
-0.29478866 -0.063833691 0.98545837
-0.28517348 -0.064059608 0.98559594
-0.27493733 -0.063975245 0.98548639
-0.2649276 -0.064013712 0.9854899
-0.25492305 -0.064054653 0.98551774
-0.24815999 -0.063090883 0.98497164
-0.30001441 -0.059294883 0.98102885
-0.2955468 -0.057811458 0.98088723
-0.28490821 -0.059282128 0.98081779
-0.27515316 -0.059277356 0.98073882
-0.2654022 -0.05927315 0.98066908
-0.25479037 -0.059274167 0.98068613
-0.24546772 -0.054483209 0.98471397
-0.30251235 -0.044358183 0.98339528
-0.29972479 -0.048627917 0.98008186
-0.24345426 -0.044998832 0.98479861
-0.30197877 -0.035681851 0.98396933
-0.29981393 -0.034491867 0.98037326
-0.24431622 -0.035100438 0.9845376
-0.11225815 -0.031182818 0.98761284
-0.10592327 -0.031920187 0.98835069
-0.30035356 -0.025846448 0.98796654
-0.29601634 -0.023476126 0.98377985
-0.2521857 -0.022453384 0.98260993
-0.24740615 -0.025974702 0.98617935
-0.12203927 -0.02387725 0.9803021
-0.11460944 -0.026152264 0.98257846
-0.10484821 -0.026727092 0.98315352
-0.096137352 -0.025416642 0.98184168
-0.29314139 -0.016718676 0.9870171
-0.28554967 -0.014370576 0.98363197
-0.27499807 -0.012607176 0.98213011
-0.26401868 -0.013493992 0.98284519
-0.25575024 -0.015839331 0.98579782
-0.28332156 -0.0088127004 0.98796409
-0.27434227 -0.0073556365 0.98720962
-0.26559195 -0.008370745 0.98730224
-0.25880206 -0.0098166484 0.98925877
0.18796052 -0.0020716619 0.98437244
0.19084089 -0.0061937948 0.98090953
0.18484312 0.0053324876 0.98512667
0.31829607 0.0026598559 0.98282504
0.17920434 0.016938256 0.98830694
0.18329887 0.015831647 0.98297054
0.19471546 0.017702224 0.98110896
0.20532221 0.017701007 0.98104161
0.21504378 0.017699892 0.9809798
0.22295533 0.017695557 0.98074865
0.28773868 0.018592345 0.98141861
0.29480791 0.018591492 0.98137349
0.30452701 0.018590314 0.98131132
0.31512824 0.018589029 0.98124343
0.32271272 0.016395455 0.98277766
0.1777498 0.023535404 0.98815805
0.18491018 0.023025906 0.98648942
0.19490296 0.023143739 0.98654479
0.20489827 0.023260647 0.98659939
0.21512552 0.023021398 0.98629659
0.22273009 0.024683774 0.98498225
0.28817761 0.023129458 0.98594928
0.29505032 0.02300949 0.98578644
0.30504206 0.02312723 0.98584121
0.31480476 0.023125144 0.98577785
0.32390508 0.023435852 0.98640317
0.21998188 0.038296442 0.98725498
0.22129995 0.03477516 0.9846009
0.2188572 0.044868182 0.98584312
0.22037424 0.042481393 0.98107195
-0.1745833 0.059376046 0.98237169
-0.036623333 0.056035779 0.98383641
0.2168162 0.055094067 0.98503077
-0.17294976 0.06434878 0.98517722
-0.16795208 0.068242885 0.98245054
-0.042944636 0.065922976 0.9841755
-0.038290821 0.061893187 0.98717284
0.21584947 0.065733299 0.98467374
0.22493969 0.066393904 0.98282421
0.23496063 0.066500634 0.98285753
0.24498329 0.066607006 0.98289055
0.25503677 0.06638144 0.98263967
0.26505685 0.066488154 0.98267299
0.27507865 0.066594496 0.98270595
0.28452587 0.066479951 0.98255354
0.29030809 0.068360008 0.98412615
-0.17014764 0.070375204 0.98748827
-0.16463777 0.075145081 0.98495835
-0.15825596 0.078685932 0.98004597
-0.051526777 0.07710363 0.98239481
-0.046898358 0.073975444 0.98625469
0.086569436 0.0705055 0.98931664
0.095071673 0.071883999 0.9886362
0.10439268 0.071081445 0.98905253
0.20984873 0.077688679 0.9898693
0.21555717 0.073639758 0.98846644
0.22487487 0.074879862 0.98851699
0.23501481 0.074627176 0.98814237
0.24496695 0.074633382 0.98822194
0.25512367 0.074858502 0.98824126
0.26511386 0.074444011 0.98802269
0.27489191 0.074950635 0.98820746
0.28482234 0.074255668 0.98813927
0.29354379 0.075842872 0.98904061
0.39527166 0.071083598 0.98908222
-0.16189648 0.081690811 0.98786885
-0.15599553 0.08573395 0.98409504
-0.061017778 0.089315876 0.98027217
-0.055165499 0.085020922 0.98481387
0.23554294 0.081191503 0.98902792
0.24516764 0.082020931 0.9882614
0.2546491 0.08218798 0.98779202
0.26408991 0.0816608 0.98853022
0.27314445 0.081229016 0.98948491
-0.15256205 0.093522668 0.98733091
-0.14717315 0.096106365 0.98277682
-0.063376196 0.09621229 0.98360342
-0.058491517 0.092638575 0.9874053
-0.29249886 -0.071221821 0.99307299
-0.28451711 -0.073153511 0.99493039
-0.27477896 -0.073638283 0.99541324
-0.26516041 -0.073511258 0.99542224
-0.25642243 -0.072158821 0.99418122
-0.29308406 -0.068803236 0.99050689
-0.28500658 -0.068794683 0.99038374
-0.27517483 -0.068793707 0.9903698
-0.26534906 -0.068794206 0.99037683
-0.25554416 -0.068800382 0.99046588
-0.2465992 -0.061871499 0.99404073
-0.24282987 -0.054998636 0.9944244
-0.24048901 -0.045391362 0.99207866
-0.23979667 -0.044007577 0.99556875
-0.24110332 -0.034185953 0.99491024
-0.23998521 -0.038649306 0.99635154
-0.10731268 -0.034876622 0.99130929
-0.30229661 -0.026828937 0.99141848
-0.29980123 -0.020583367 0.99203724
-0.24391206 -0.024859522 0.99479234
-0.30110589 -0.018875293 0.99635428
-0.29629827 -0.01367133 0.99378794
-0.25202093 -0.012757054 0.99243385
-0.24761452 -0.016110444 0.99558306
-0.2929343 -0.007105242 0.99635065
-0.28541392 -0.0038512782 0.9939779
-0.27561328 -0.0024080649 0.99219918
-0.26449332 -0.0030914915 0.99296945
-0.25564367 -0.0061582979 0.99555033
-0.24971287 -0.0090143085 0.99931067
-0.28281984 0.0021028419 0.9984355
-0.27499539 0.0025948577 0.9971503
-0.26556003 0.0023161147 0.99788916
-0.25888249 0.00090202957 0.99990821
0.17886919 0.0098872418 0.99637276
0.18158874 0.0062704762 0.992823
0.32460338 0.0080769397 0.99398386
0.1772624 0.015483062 0.9949497
0.32721803 0.015240292 0.99376512
0.17446642 0.026012091 0.99436456
0.18478896 0.028724151 0.99218363
0.19509377 0.02863846 0.99203378
0.20492494 0.028636638 0.99197072
0.21475483 0.028634816 0.9919076
0.22088191 0.028616594 0.99129426
0.28888568 0.028621081 0.99143183
0.29513428 0.028619917 0.99139136
0.30495259 0.028618082 0.99132806
0.3147696 0.02861625 0.99126458
0.3250443 0.028530635 0.99111456
0.33156523 0.027799359 0.99425721
0.16902357 0.033925168 0.99839383
0.17473997 0.03327848 0.99695152
0.18494135 0.03316161 0.99661648
0.19478992 0.033385329 0.99677861
0.20498154 0.033266786 0.99659657
0.21625656 0.034253646 0.99579114
0.22076292 0.031282194 0.99076021
0.28969052 0.031390615 0.99419403
0.29498836 0.034179509 0.99694735
0.30508325 0.034137245 0.99684179
0.31496117 0.034219552 0.99686193
0.32482517 0.034132853 0.99671328
0.3328875 0.034792062 0.99732137
0.2169659 0.045044422 0.99467677
-0.03484264 0.059857871 0.99034345
0.21471877 0.05491541 0.99521303
-0.17445177 0.068886086 0.99169964
-0.040237304 0.068850495 0.99118727
-0.036472734 0.066226363 0.99424702
0.067684583 0.062882431 0.99818307
0.075149059 0.064847521 0.99523109
0.084931627 0.06439168 0.99496651
0.094982237 0.064723283 0.99463576
0.10499226 0.064601995 0.99475628
0.1150113 0.064485356 0.99491739
0.12424076 0.064012989 0.99702239
0.13074671 0.060413998 0.9995445
0.16729741 0.068091251 0.99973589
0.17484714 0.068496056 0.99907064
0.18476109 0.068496034 0.99907029
0.19467503 0.068496011 0.99906993
0.20506445 0.068572663 0.99899286
0.2125283 0.064820148 0.99518859
0.29741988 0.068496116 0.99907154
0.30506369 0.068419464 0.99914861
0.31501219 0.068572849 0.9989956
0.32489359 0.068419546 0.99914968
0.33441436 0.068504632 0.99919415
0.34006837 0.067652859 0.99991775
0.37729543 0.064362846 0.99818128
0.38470823 0.064962745 0.99513268
0.3948442 0.064602427 0.99475515
-0.1728023 0.073933624 0.99455869
-0.16772556 0.078223445 0.99212283
-0.043023251 0.075521462 0.99364847
-0.03825463 0.072460696 0.99778742
0.07638339 0.073006131 0.99618769
0.084561564 0.075149313 0.99459773
0.094790556 0.077322923 0.9931612
0.10496716 0.075989664 0.99355274
0.11461508 0.074175484 0.99538112
0.12158182 0.072049558 0.99833024
0.17605446 0.072789691 0.99789697
0.18515085 0.07471668 0.99555439
0.19515619 0.075507984 0.99369687
0.20488152 0.075047344 0.99339229
0.21359953 0.076144472 0.99168891
0.22529095 0.07599102 0.99102062
0.23511072 0.075986363 0.99095994
0.24492919 0.075981706 0.99089915
0.25474653 0.07597705 0.99083853
0.26456264 0.075972393 0.99077779
0.27526975 0.075967319 0.99071163
0.28565246 0.076551095 0.99055928
0.2959328 0.07560835 0.99277878
0.3049632 0.075158224 0.99336737
0.31457317 0.07484401 0.99403399
0.32450765 0.07384032 0.99645007
0.33231235 0.072046362 0.99829531
0.38575473 0.073810861 0.99588847
0.395022 0.075968474 0.99348581
-0.17041574 0.08205203 0.99951035
-0.16494715 0.085037805 0.99525255
-0.15988913 0.08664383 0.99015975
-0.051732033 0.087177306 0.9921509
-0.04701275 0.083792455 0.99589187
0.087060608 0.080572739 0.99905348
0.095250234 0.082287259 0.99798059
0.10450898 0.081310384 0.99869901
0.18732949 0.081056774 0.99835449
0.19532695 0.083297931 0.99779963
0.20514004 0.083810128 0.99668211
0.21507628 0.084599383 0.99582386
0.22507659 0.085264854 0.99483132
0.23515396 0.086213782 0.99410933
0.24491549 0.086584389 0.99286175
0.2549786 0.087104522 0.99266946
0.26518673 0.086261488 0.99329436
0.27514026 0.085765518 0.9943226
0.28482339 0.085233331 0.99527347
0.2949549 0.084515519 0.99610758
0.30485219 0.08374089 0.9968493
0.31466866 0.082576089 0.99790478
0.32199207 0.080272533 0.99980736
0.39531612 0.081262179 0.9986614
-0.2500833 -0.065906428 1.0007931
-0.24656934 -0.062318888 1.0011929
-0.24127784 -0.053316075 1.0017182
-0.24023643 -0.043515161 1.004922
-0.23987938 -0.040734235 1.0034285
-0.23987639 -0.035301734 1.0034161
-0.24123408 -0.024450155 1.0038613
-0.30197236 -0.014175748 1.0032158
-0.24390888 -0.015087887 1.0046949
-0.30088216 -0.0072699543 1.0076456
-0.29632831 -0.0036201149 1.0039145
-0.25227278 -0.0027115813 1.0023245
-0.24748379 -0.0062463563 1.0057306
-0.29254681 0.0034543755 1.0064876
-0.28515887 0.0062479861 1.0038334
-0.27496752 0.0081425142 1.0026467
-0.26435196 0.0073631606 1.0034121
-0.25534984 0.0039121322 1.0059683
-0.28416669 0.011524291 1.0085384
-0.27441767 0.013519743 1.0079376
-0.26583374 0.012817399 1.0082401
-0.25857753 0.010015347 1.0092824
0.17371349 0.016891958 1.0029516
0.33151633 0.018969599 1.0013323
0.16865677 0.026866889 1.006243
0.17123769 0.023295265 1.0030162
0.33611006 0.025430001 1.0069816
0.16615307 0.035622951 1.0048461
0.17526454 0.037944727 1.0014559
0.18519035 0.03794229 1.0013916
0.19511485 0.037939854 1.0013274
0.2050381 0.037937414 1.001263
0.21363463 0.037831001 1.0011029
0.2954669 0.038853448 1.0016143
0.30538639 0.038850937 1.0015496
0.31530461 0.03884843 1.0014849
0.32522157 0.038845915 1.00142
0.3354145 0.037937704 1.0012845
0.34074667 0.037254971 1.0072557
0.15936418 0.044621971 1.0094668
0.16501226 0.042577337 1.0066853
0.17509547 0.043659069 1.0071661
0.18488421 0.043438625 1.0068852
0.19484739 0.043781102 1.0071652
0.2048409 0.043433025 1.0067552
0.21360706 0.044685826 1.0052867
0.29629964 0.043223996 1.005976
0.30501026 0.04357703 1.0062741
0.31497523 0.043574847 1.0062093
0.32493898 0.043571372 1.0061433
0.33490145 0.043569192 1.0060786
0.34235647 0.044323374 1.0072378
0.058432493 0.053584404 1.0068513
0.065140605 0.054513421 1.0049087
0.075082295 0.054248136 1.005118
0.08435075 0.055579051 1.0037867
0.094807945 0.057089604 1.0022757
0.1055179 0.056394741 1.0029697
0.11524714 0.05453575 1.0048295
0.12496603 0.054510359 1.0048563
0.1339477 0.054321114 1.0059069
0.14464657 0.059132248 1.0084407
0.1546535 0.05913223 1.0084404
0.16466045 0.059132207 1.0084401
0.17466748 0.059132222 1.0084405
0.18467468 0.059132289 1.0084416
0.19468178 0.059132311 1.0084419
0.2046887 0.059132289 1.0084416
0.21244714 0.055188499 1.0054357
0.2983911 0.059132382 1.0084431
0.30475926 0.05913239 1.0084432
0.31476632 0.059132401 1.0084434
0.32477298 0.059132338 1.0084423
0.33477974 0.059132289 1.0084414
0.34478679 0.059132297 1.0084416
0.35479382 0.059132308 1.0084418
0.36759973 0.055695333 1.0069393
0.37503201 0.054279692 1.005088
0.38499883 0.054488465 1.0048788
0.39445421 0.055771444 1.0035951
0.059090532 0.061818585 1.0077293
0.064139597 0.065594606 1.004301
0.12812622 0.067482851 1.0012084
0.13497379 0.065220781 1.0041423
0.14519301 0.064430699 1.0059258
0.15532184 0.065150917 1.0049245
0.16454525 0.064756185 1.0038019
0.17506963 0.063528538 1.0040423
0.18501405 0.063295946 1.004275
0.19499624 0.0635285 1.0040417
0.20494525 0.063295901 1.0042742
0.2113639 0.062715195 1.0027112
0.29756683 0.063747823 1.0038236
0.30505171 0.063369848 1.0042022
0.31501311 0.063447781 1.004125
0.32498184 0.06336993 1.0042033
0.33517087 0.063407339 1.0041655
0.34515169 0.064995036 1.0038698
0.35481238 0.064628743 1.0049978
0.36526242 0.065213807 1.0048612
0.37273866 0.065387405 1.0020697
-0.17431773 0.078578457 1.0012064
-0.040606361 0.078505628 1.0002785
-0.036630239 0.075983696 1.0037595
0.067781068 0.073233753 1.0067405
0.073442884 0.077219963 1.0030941
0.11735862 0.078539759 1.0007133
0.12509382 0.074834615 1.004814
0.13415468 0.072534688 1.0082097
0.14479347 0.070120133 1.0094652
0.15535858 0.07163436 1.0088003
0.1658168 0.074333869 1.0059444
0.17400169 0.07691817 1.003083
0.3279185 0.077989705 1.0013779
0.33563998 0.075721584 1.0041302
0.34425583 0.073611625 1.0073698
0.35503513 0.071111158 1.0087564
0.3658793 0.071882404 1.0086336
0.37559146 0.074451596 1.0059531
0.38215521 0.077066362 1.0030627
-0.24036597 -0.035645571 1.01311
-0.23981813 -0.031003196 1.0108008
-0.24013233 -0.021912925 1.0121253
-0.23986353 -0.024712153 1.014866
-0.24137457 -0.014252431 1.0146216
-0.23994543 -0.019305954 1.0190872
-0.30196175 -0.0027461967 1.0143237
-0.24431433 -0.0043739853 1.0147716
-0.3010928 0.0027541397 1.0175741
-0.29665631 0.0057164337 1.0133916
-0.25196818 0.0071778735 1.0125223
-0.24760671 0.0037819697 1.015648
-0.29315004 0.012994975 1.0165547
-0.28545094 0.01632599 1.0140084
-0.27563545 0.017809089 1.0122985
-0.2644186 0.017078783 1.0131235
-0.25550434 0.01405706 1.0159047
-0.24916537 0.010113724 1.0191962
-0.28294548 0.0220482 1.0183346
-0.27471802 0.022828514 1.0172107
-0.26541847 0.022396119 1.0180649
0.16632642 0.026201261 1.0130663
0.05703935 0.039559551 1.019817
0.065319285 0.039559573 1.0198176
0.073599219 0.03955958 1.0198178
0.11775865 0.039559547 1.0198169
0.12511857 0.039559543 1.0198169
0.13523848 0.039559558 1.0198171
0.15841015 0.038109582 1.0179689
0.16226606 0.034173541 1.0142298
0.34322688 0.034778003 1.0145874
0.36707687 0.039559666 1.0198201
0.37535691 0.039559674 1.0198202
0.38455689 0.039559677 1.0198203
0.056925606 0.044678897 1.0152313
0.064980775 0.044839557 1.0145324
0.07418444 0.045120016 1.0142518
0.11795235 0.045796279 1.0135758
0.12500189 0.044644743 1.0147288
0.13453788 0.044839635 1.0145341
0.14359003 0.046844259 1.0181352
0.15667149 0.045455575 1.0145348
0.16507705 0.047426324 1.0109917
0.17456608 0.048106857 1.0116127
0.18529259 0.048376895 1.0118159
0.19532044 0.048373774 1.0117505
0.20534703 0.048370648 1.0116851
0.21172696 0.048368663 1.0116436
0.29734802 0.048341855 1.011083
0.30463037 0.048339561 1.0110351
0.31464261 0.048336405 1.0109692
0.32465348 0.048333257 1.0109031
0.33466312 0.048330098 1.0108372
0.34554192 0.04637124 1.012424
0.35556743 0.048695087 1.018471
0.366041 0.045555376 1.0155675
0.37487128 0.044777241 1.014599
0.38443342 0.045131639 1.0142444
0.056527246 0.055384818 1.0147904
0.13875222 0.055681374 1.0118957
0.14501183 0.053751014 1.0138277
0.1548513 0.054117415 1.0130496
0.16483708 0.053723574 1.0131245
0.17491899 0.054106381 1.0128274
0.18493882 0.053722154 1.013096
0.19501537 0.054105181 1.012803
0.20503958 0.053720772 1.013068
0.21125782 0.05326933 1.012313
0.29819417 0.053898554 1.0127209
0.305136 0.053833313 1.0127156
0.3151685 0.053962953 1.0126618
0.32503715 0.053826254 1.0126272
0.33506459 0.05395985 1.0126441
0.3451159 0.053823519 1.0125734
0.35528809 0.054135773 1.0134114
0.36425838 0.053837538 1.013104
0.058459278 0.065261953 1.0148423
0.061132051 0.0684314 1.0114247
-0.24056897 -0.0276528 1.0217354
-0.24029186 -0.014141932 1.0250599
-0.23997293 -0.012971522 1.0270743
-0.24120368 -0.0044701393 1.0251008
-0.30231303 0.0073988521 1.0248222
-0.24408847 0.0048513995 1.0244384
-0.30093777 0.012037511 1.026438
-0.29655388 0.016528465 1.0240865
-0.2521545 0.017945938 1.0230429
-0.24745443 0.013676742 1.025671
-0.29258239 0.023776429 1.026722
-0.28542686 0.02585694 1.023525
-0.27519318 0.027746446 1.0221115
-0.26437777 0.026760574 1.0228212
-0.25600421 0.02417626 1.0254714
-0.24980582 0.021358863 1.029413
-0.28312016 0.031768128 1.0281422
-0.27475825 0.032538023 1.0267917
-0.26532397 0.032078076 1.0276622
-0.2590498 0.030640299 1.0292442
0.057796333 0.035205819 1.0241746
0.064904019 0.034088619 1.0252938
0.075044312 0.034421291 1.0250621
0.081838407 0.032688208 1.027966
0.10871274 0.030662566 1.0299922
0.1155973 0.034042004 1.0264207
0.12504624 0.034349211 1.0250309
0.13414608 0.03444536 1.0249348
0.14568512 0.038972281 1.0286198
0.15519635 0.03761255 1.0245492
0.34848276 0.03779836 1.0219482
0.35584345 0.038872909 1.0287182
0.36609522 0.036723431 1.0262556
0.37491634 0.034145448 1.0252373
0.38472271 0.034212079 1.0251701
0.39276916 0.032451656 1.0278271
0.054297552 0.048775766 1.0201584
0.078643084 0.041634575 1.025607
0.11627692 0.043802712 1.0257088
0.14555931 0.044461541 1.023127
0.15236689 0.043817062 1.0226144
0.35558692 0.044247963 1.023199
0.36247316 0.044089273 1.0232089
0.054811597 0.055430193 1.0240475
-0.24127501 -0.021425966 1.0326471
-0.24051763 -0.011231264 1.0374165
-0.24027888 -0.0034235616 1.0337144
-0.23996918 -0.0046686493 1.0350509
-0.24119656 0.0051328111 1.0343221
-0.30154595 0.017083379 1.0327516
-0.24408162 0.015307283 1.0346957
0.068468526 0.019696426 1.0396987
0.075034 0.019696428 1.0396987
0.085351087 0.019696403 1.0396976
0.094730146 0.019696366 1.0396955
0.10504734 0.019696375 1.0396961
0.11536436 0.019696355 1.039695
0.12380555 0.019696336 1.0396941
0.37985918 0.019696401 1.0396974
0.38548681 0.019696409 1.0396976
0.3948656 0.019696385 1.0396965
-0.30112845 0.025328562 1.039887
-0.29628709 0.025994318 1.0331748
-0.2522867 0.026998799 1.0319704
-0.24759464 0.024744073 1.0362345
0.058621757 0.027914304 1.0314724
0.065415919 0.025943391 1.0334457
0.075169645 0.024981096 1.0344088
0.084900402 0.025183655 1.0342075
0.094855286 0.025392251 1.0344878
0.10504308 0.024984637 1.0345349
0.11495413 0.025323441 1.0340643
0.12501642 0.025184002 1.0342027
0.13385743 0.02721072 1.0336677
0.1452184 0.02904368 1.0385545
0.15458727 0.029043669 1.0385542
0.16301925 0.02904366 1.0385538
0.34946126 0.029043697 1.0385551
0.35508269 0.029043704 1.0385555
0.36586827 0.02872101 1.0365316
0.37554139 0.026061932 1.033717
0.38494346 0.025250943 1.0341382
0.39501494 0.025115998 1.0342723
-0.29311126 0.032958824 1.0364128
-0.28568742 0.035787005 1.0336553
-0.27447447 0.037217703 1.0313799
-0.26432964 0.036869429 1.0327808
-0.25542897 0.033926841 1.0357287
0.085952461 0.035105776 1.0341998
0.09457013 0.032846283 1.0367231
0.10519239 0.034174863 1.0359328
0.11152931 0.036681306 1.0319868
0.1392304 0.031769875 1.0358269
0.14483196 0.03370567 1.0338897
0.15454003 0.033125337 1.0344702
0.16232733 0.03146765 1.0361284
0.35489759 0.033396386 1.0341992
0.36450362 0.033447545 1.0341481
0.39769 0.034971017 1.0336329
-0.28402743 0.040887792 1.0379521
-0.27488029 0.042075906 1.0364211
-0.26563638 0.04152799 1.0371219
-0.25875723 0.040313721 1.039259
0.082424931 0.042082313 1.0365835
0.10959408 0.040278167 1.0383425
0.11368451 0.044035118 1.0354022
0.39549026 0.040203501 1.0364176
-0.24059974 -0.0028329666 1.04591
-0.24008393 0.0075322418 1.0436678
-0.23996238 0.0028230101 1.0431393
-0.24131744 0.015859328 1.0442628
0.075851999 0.016673256 1.042725
0.085426427 0.015348703 1.0440489
0.095262423 0.014847495 1.0445484
0.10482821 0.015201908 1.0441935
0.11483254 0.015999312 1.0433943
0.12190479 0.017235205 1.0421569
0.176751 0.019849043 1.0477548
0.38642877 0.017158158 1.0422381
0.39527872 0.016131716 1.0432638
-0.30261338 0.027338903 1.0450149
-0.29934138 0.029089602 1.0401967
-0.24400571 0.025686041 1.0448588
0.13890418 0.027217712 1.0403824
0.14609957 0.027217694 1.0403817
0.1555315 0.026912278 1.0406867
0.16492446 0.025665672 1.0419339
0.17183383 0.022930151 1.0446712
0.34819886 0.027217699 1.0403819
0.35195312 0.027217707 1.0403823
0.36696982 0.02721771 1.0403823
0.37199071 0.026301488 1.0412986
-0.30040628 0.031076513 1.0438972
-0.29564217 0.036132198 1.0422728
-0.25227165 0.037293155 1.0421611
-0.24753755 0.033437312 1.0451882
0.089179188 0.038487859 1.0405891
0.095347025 0.037700493 1.0418693
0.10275628 0.038135 1.0412008
-0.24039675 0.0066497386 1.0532888
-0.24014916 0.015189037 1.0522039
-0.24147952 0.025383445 1.0532806
-0.24052636 0.016289264 1.0622538
0.086679839 0.00097393082 1.0796114
0.10452862 0.0017518203 1.0788729
0.069729276 -0.0078568552 1.0886698
0.075397111 -0.0081044277 1.0889685
0.085658215 -0.0053484486 1.0857795
0.094997168 -0.0049008531 1.0856229
0.10473832 -0.0049003451 1.0850717
0.11474232 -0.004903744 1.0871147
0.12211471 -0.0044475738 1.0855987
0.069858931 -0.010823214 1.0906941
0.075061254 -0.014822255 1.0948585
0.085123472 -0.014820275 1.0946934
0.095188111 -0.014897123 1.0947688
0.10526978 -0.014820257 1.0946919
0.11532932 -0.01497457 1.0948478
0.12549412 -0.014827038 1.0953504
0.13329481 -0.014220512 1.0957612
0.066082038 -0.023205748 1.1034307
0.074749269 -0.024923796 1.1048037
0.084715851 -0.024923794 1.1048037
0.094682425 -0.024923794 1.1048036
0.10464899 -0.024923794 1.1048038
0.11461554 -0.024923796 1.1048038
0.12458214 -0.024923796 1.1048038
0.13376677 -0.025909845 1.1070433
0.066371597 -0.033763085 1.1147827
0.075872779 -0.034743015 1.1146308
0.085505627 -0.035215698 1.1151032
0.09556511 -0.035215694 1.1151034
0.10543983 -0.035042234 1.1149294
0.1152802 -0.035215698 1.1151034
0.12494425 -0.035125889 1.1150138
0.13161157 -0.033838455 1.1137267
0.077584974 -0.043867227 1.124246
0.084431835 -0.043582883 1.1234753
0.094764575 -0.045425035 1.1253204
0.10436654 -0.044473901 1.1243689
0.11370978 -0.045033187 1.1249266
0.1244269 -0.041475635 1.1213691
0.13049626 -0.041475553 1.1213669
0.094969332 -0.052079957 1.1319828
0.22717933 -0.20692933 1.1691315
0.23428299 -0.2062588 1.1690874
0.24592306 -0.20370451 1.1699915
0.20961016 -0.21173818 1.1794661
0.21638808 -0.21214244 1.1772773
0.22534525 -0.21362805 1.1753749
0.23450574 -0.21386525 1.1755399
0.24462475 -0.21221945 1.1777045
0.19892502 -0.20105256 1.1791992
0.20564823 -0.20416465 1.1762908
0.21497214 -0.20438148 1.1738936
0.22443959 -0.20350055 1.1726797
0.23507264 -0.20281133 1.1724741
0.24466909 -0.20408335 1.1727154
0.25344566 -0.20420884 1.1747444
0.19795021 -0.19901463 1.1797304
0.20526758 -0.19888684 1.1789728
0.21612586 -0.19820353 1.1785272
0.22474664 -0.19758338 1.1782521
0.23531304 -0.19689593 1.1778409
0.24531975 -0.19646659 1.1772293
0.25524932 -0.19631693 1.1763467
0.26196763 -0.19453774 1.1784068
0.21633779 -0.22246441 1.1880413
0.22556499 -0.22371778 1.1857932
0.23441495 -0.2245242 1.1858575
0.24454746 -0.22258247 1.1876484
0.20541526 -0.21454714 1.1855646
0.21405762 -0.21701775 1.1832494
0.22274774 -0.21848573 1.1814317
0.23759742 -0.21841799 1.1810653
0.24583703 -0.21737593 1.183116
0.25400284 -0.2151757 1.1847019
0.2605156 -0.21119989 1.1884115
0.19655728 -0.20375828 1.185941
0.20162302 -0.20749399 1.1825613
0.2584742 -0.20727634 1.1823366
0.26338398 -0.2031507 1.1852287
0.18876001 -0.19347402 1.1875303
0.19508848 -0.1950893 1.1848378
0.20499831 -0.19431864 1.1835665
0.21441893 -0.19369613 1.1832086
0.22511813 -0.19310923 1.1826841
0.23471385 -0.19263636 1.1821595
0.24464567 -0.19180688 1.1819555
0.25388551 -0.19154553 1.1812561
0.26565093 -0.19417252 1.1826276
0.27056432 -0.19249783 1.1854668
0.18887627 -0.18994953 1.1896093
0.1952216 -0.18985879 1.1890409
0.205724 -0.18917941 1.188627
0.2154403 -0.18864402 1.1881511
0.22545175 -0.18794584 1.1878088
0.23457724 -0.18744594 1.1873599
0.24527216 -0.18706265 1.186631
0.25500336 -0.18627863 1.1864027
0.26528698 -0.1855993 1.1860117
0.27142987 -0.18359058 1.1873786
0.20879702 -0.23043402 1.1992407
0.21545462 -0.23213588 1.1984489
0.22567898 -0.23359609 1.1960322
0.23451321 -0.23451664 1.1956087
0.24446888 -0.23312201 1.1977618
0.25412169 -0.23033029 1.1987008
0.20626879 -0.22402404 1.1952231
0.2148487 -0.22718512 1.1935287
0.22299159 -0.22858408 1.1918496
0.23864168 -0.22896655 1.1916037
0.24576966 -0.22783071 1.193152
0.25447315 -0.22470933 1.1938933
0.26017222 -0.22130832 1.1966944
0.19724333 -0.21355394 1.1962552
0.20171428 -0.2171538 1.1936232
0.25907969 -0.21715546 1.1916692
0.26394922 -0.21433398 1.1956351
-0.11428332 -0.2018885 1.198902
-0.1048882 -0.20328955 1.1986587
-0.096273549 -0.20120141 1.1991051
0.18891278 -0.20294738 1.1966376
0.19316263 -0.20609063 1.1938128
0.26715013 -0.20583065 1.1924971
0.27105206 -0.20518035 1.1970667
-0.12188088 -0.1943596 1.1991627
-0.11477461 -0.19467293 1.1968702
-0.10466054 -0.19529681 1.1960571
-0.095254749 -0.19477104 1.1975116
-0.089797162 -0.19365944 1.1992892
0.18716009 -0.19542427 1.1946481
0.27169928 -0.19652556 1.1904395
-0.12319505 -0.18545277 1.1990842
-0.11548263 -0.18455248 1.1963673
-0.10458906 -0.1843787 1.1952407
-0.095014408 -0.18463261 1.1968865
-0.088981606 -0.18580747 1.1992387
0.18643756 -0.18427642 1.1963545
0.19506148 -0.18427862 1.1946313
0.20498201 -0.18405278 1.1938269
0.21482281 -0.18286569 1.1939901
0.2246111 -0.18262728 1.1932104
0.23503888 -0.18232948 1.1924244
0.24455415 -0.18253209 1.1912326
0.2546612 -0.18159434 1.1911185
0.26308951 -0.18147822 1.1903569
-0.12063946 -0.17690118 1.1993707
-0.11433496 -0.17528217 1.1979251
-0.10475957 -0.17495818 1.1971887
-0.095717669 -0.17571846 1.1984035
-0.089832768 -0.1785832 1.1997646
0.19809945 -0.17861426 1.1999732
0.20449531 -0.17852826 1.1993954
0.21590818 -0.17806067 1.1986781
0.22488412 -0.177312 1.1984935
0.23488422 -0.17764755 1.1971186
0.24505261 -0.17703871 1.1966687
0.25512782 -0.1771123 1.1955465
0.26493832 -0.17575116 1.1958843
0.27297205 -0.17545435 1.1953442
-0.11256193 -0.16992496 1.1997669
-0.10494521 -0.16986021 1.1993098
-0.09850584 -0.16994964 1.1999412
0.21563224 -0.24147964 1.2081069
0.22528218 -0.24342375 1.2064151
0.2345667 -0.24494675 1.2059394
0.24501257 -0.24261734 1.2071011
0.2529031 -0.24091154 1.2083833
0.20658055 -0.23387918 1.205842
0.21409154 -0.23646101 1.203476
0.2243852 -0.23847789 1.201612
0.23563705 -0.23942666 1.2009354
0.24510741 -0.23751575 1.2022268
0.25466859 -0.23531471 1.2040756
0.26056203 -0.23439682 1.2085166
0.19790086 -0.22308929 1.2063109
0.20234959 -0.22623099 1.2031802
0.25909021 -0.22873655 1.2016901
0.2644113 -0.22454858 1.2050691
-0.1216886 -0.21104842 1.2079951
-0.11495941 -0.21327248 1.2070709
-0.10549424 -0.21316516 1.2055837
-0.095034137 -0.2129541 1.2078159
-0.08835312 -0.21052039 1.209139
0.18876545 -0.21058805 1.2095276
0.19311114 -0.21558015 1.204895
0.26782998 -0.21578419 1.2019918
0.27206969 -0.21439102 1.2063636
-0.13200337 -0.20182332 1.2093138
-0.12431212 -0.2038157 1.2043903
-0.11549011 -0.20694333 1.2020763
-0.10513024 -0.20809412 1.2014246
-0.094138421 -0.20600164 1.2025552
-0.085785612 -0.20375215 1.2059572
0.18825363 -0.20501594 1.2042776
0.27220023 -0.20930137 1.2021375
-0.13272288 -0.19442661 1.2070293
-0.12672676 -0.19578171 1.2023563
-0.084763259 -0.19521849 1.2029701
-0.078737564 -0.19425845 1.2080567
0.18548897 -0.19462438 1.2052599
-0.13273878 -0.18496192 1.2060736
-0.12764049 -0.18500334 1.2018409
-0.084194466 -0.1847993 1.2023593
-0.078316525 -0.18459588 1.2076383
0.18315354 -0.18478438 1.2049204
-0.13256024 -0.1772294 1.2077554
-0.12556264 -0.17425057 1.2033157
-0.11733644 -0.17076926 1.2006319
-0.093031064 -0.17135791 1.2011462
-0.085427754 -0.17487621 1.204069
-0.079573713 -0.17658627 1.2083316
0.18560277 -0.17560121 1.2045909
0.19469617 -0.17444092 1.2044952
0.20503809 -0.17393921 1.203923
0.21462351 -0.17349611 1.2033712
0.22468837 -0.17258501 1.2032363
0.23535307 -0.17244591 1.2022667
0.24512605 -0.17137077 1.2023232
0.25470239 -0.17124632 1.20145
0.26553196 -0.17015766 1.2014099
0.27402601 -0.17004789 1.200635
-0.12399145 -0.16630197 1.2071531
-0.11519267 -0.16408691 1.2046274
-0.10530411 -0.16392161 1.203411
-0.094781905 -0.16437177 1.2053815
-0.086380199 -0.16731478 1.2077179
0.1964172 -0.16913742 1.2096156
0.20501411 -0.16902795 1.2088327
0.21560305 -0.16817497 1.2085856
0.22506626 -0.16792186 1.2078553
0.23517281 -0.16688918 1.2078369
0.2450102 -0.16660513 1.2070972
0.25563377 -0.1661112 1.2064843
0.26495042 -0.16518252 1.206442
0.27244884 -0.1656836 1.2051604
-0.11127181 -0.15818027 1.2092712
-0.1046944 -0.15813254 1.2089063
-0.099297144 -0.15822072 1.2095804
0.21652867 -0.25170222 1.218403
0.22547215 -0.25316489 1.216482
0.23463938 -0.25382289 1.2147168
0.24415128 -0.25315475 1.2169229
0.25289556 -0.25179553 1.2188545
0.20735458 -0.2440023 1.216172
0.21477918 -0.24653584 1.2136985
0.22279763 -0.24772525 1.2118493
0.24564256 -0.2474644 1.2119991
0.25503713 -0.24594127 1.2141523
0.26168841 -0.2426575 1.2171358
0.19797616 -0.23237626 1.2169648
0.20256236 -0.23563409 1.2137583
0.25873294 -0.23908234 1.2101599
0.26517951 -0.23449612 1.2146747
-0.11313406 -0.22077222 1.2175527
-0.1052392 -0.2203455 1.2151991
-0.098869458 -0.22081 1.2177609
0.19432919 -0.22569726 1.2149543
0.26791492 -0.22745585 1.2121886
0.27177551 -0.22571492 1.2157614
-0.12479582 -0.21346873 1.2134877
-0.11559352 -0.21732414 1.212611
-0.10481451 -0.21727252 1.2102947
-0.094336316 -0.2173119 1.2139957
-0.085939594 -0.21305552 1.2147045
0.18904994 -0.21480514 1.2148714
0.19140655 -0.2198441 1.2124341
0.27193519 -0.21951397 1.2106134
-0.13364047 -0.2048393 1.2142631
-0.12885703 -0.20748124 1.2105004
-0.082097486 -0.20853627 1.2134558
-0.078021742 -0.2036428 1.2143701
0.18661056 -0.20503023 1.2154009
-0.1373872 -0.19512942 1.2134833
-0.074218191 -0.19457039 1.2148185
0.1842663 -0.19478412 1.2144089
-0.13784318 -0.18488124 1.2126855
-0.07356482 -0.1848599 1.2146041
0.18265986 -0.18703751 1.2124562
-0.13623725 -0.17500147 1.2139542
-0.076088615 -0.17485 1.2143264
-0.13233171 -0.16712362 1.2148182
-0.12583716 -0.16209961 1.2129511
-0.090669498 -0.16058333 1.2109396
-0.084018283 -0.16388029 1.2138047
-0.078739963 -0.16822803 1.2156799
0.18737598 -0.16620627 1.2134827
0.19481559 -0.16460007 1.2143158
0.20498955 -0.16406918 1.2137897
0.21490167 -0.16373797 1.2130907
0.22498065 -0.16286322 1.2129173
0.23459756 -0.16241179 1.2123692
0.24489324 -0.1618039 1.211906
0.25379267 -0.16145392 1.2113299
0.26546207 -0.16058859 1.2109795
0.27188477 -0.16051029 1.2103888
-0.12356086 -0.1582341 1.2164015
-0.1150483 -0.15580416 1.2145952
-0.10480292 -0.15437795 1.2150431
-0.095481716 -0.1563683 1.2145947
-0.087310031 -0.15869808 1.2174304
0.19470802 -0.15950716 1.2194152
0.20554057 -0.15937693 1.2184194
0.21486132 -0.15818372 1.2186427
0.22517133 -0.15816876 1.217587
0.23506923 -0.15707698 1.2176492
0.24477531 -0.15696169 1.2167556
0.25522014 -0.15607959 1.2165504
0.26461613 -0.15569524 1.2159568
0.27101949 -0.15713453 1.2138522
0.21561985 -0.26082879 1.2282531
0.22530967 -0.26255727 1.2263216
0.23460907 -0.26257303 1.2235266
0.24432874 -0.26201621 1.2255166
0.25472745 -0.26026449 1.2276835
0.20781429 -0.25333211 1.22628
0.21458912 -0.25541517 1.2230147
0.22362436 -0.25861344 1.2228652
0.23450032 -0.25872138 1.2204046
0.24618302 -0.25784022 1.2221848
0.25520113 -0.25580549 1.2236816
0.2624664 -0.25360897 1.2276218
0.19730443 -0.24164259 1.2287315
0.20312366 -0.24550056 1.2243429
0.26570538 -0.24526274 1.2246696
0.27139378 -0.24037734 1.2279288
0.19537587 -0.23546644 1.2246102
0.26891875 -0.23695926 1.2217205
0.273076 -0.23504715 1.2255354
-0.095860273 -0.22147028 1.2214024
-0.089585498 -0.22009276 1.2260045
0.18942001 -0.22376029 1.2279173
0.19075175 -0.22603787 1.2222549
0.27427638 -0.22801287 1.2210358
-0.13210976 -0.21137485 1.2203715
-0.12565002 -0.21713722 1.2218125
-0.08346463 -0.21510339 1.2228016
-0.078400008 -0.21090707 1.2240443
0.18783621 -0.21546 1.2248263
-0.13670801 -0.20617123 1.222131
-0.075023137 -0.20521204 1.2229838
0.18545139 -0.20578793 1.2251329
-0.14254263 -0.1922687 1.2248824
-0.13994627 -0.19945097 1.2215098
-0.071677141 -0.19739051 1.2223812
-0.069684841 -0.19246361 1.2261317
0.1841 -0.1984321 1.2220154
-0.1422573 -0.18526363 1.2224307
-0.069639042 -0.18459639 1.2253258
-0.14034721 -0.17350009 1.2250094
-0.13875628 -0.17289497 1.2207322
-0.072372861 -0.1745442 1.223508
-0.069884412 -0.17859349 1.2296432
-0.13426279 -0.16423641 1.2242173
-0.080629684 -0.16125736 1.2243665
-0.076590873 -0.1660676 1.2245482
-0.12510021 -0.15633433 1.2241228
-0.11501585 -0.15210301 1.223581
-0.10480194 -0.15113673 1.222894
-0.09451241 -0.15288711 1.2243167
-0.086176582 -0.15688428 1.2247214
0.18820068 -0.15958537 1.220013
0.19632737 -0.15558127 1.2231681
0.20497258 -0.15432635 1.2235231
0.21520691 -0.1534021 1.2233831
0.22497399 -0.15328909 1.2224818
0.23446712 -0.15246738 1.2223165
0.24523547 -0.15218534 1.2214792
0.25458714 -0.15098932 1.2217014
0.2632319 -0.15089041 1.220901
0.20576698 -0.1492452 1.228516
0.21496795 -0.14848246 1.2283221
0.22521943 -0.14809772 1.2276421
0.23514101 -0.14741918 1.2272891
0.24487403 -0.14701772 1.2266788
0.25461525 -0.14704958 1.2256343
0.26148352 -0.14894632 1.2230251
0.21004935 -0.26117247 1.2319665
0.19915499 -0.25201625 1.2379408
0.20433158 -0.25476858 1.2332491
0.26453638 -0.25564277 1.2321014
0.19601886 -0.2450275 1.2346134
0.20084913 -0.247455 1.2300726
0.26770157 -0.24992886 1.2313266
0.27318233 -0.24468312 1.2340015
0.19127095 -0.23546977 1.2351125
0.18878701 -0.22498582 1.2346544
0.18639401 -0.21490125 1.234293
-0.069980808 -0.19661276 1.2313395
-0.076753154 -0.16461401 1.2329962
-0.1276655 -0.15652901 1.2305949
-0.11439634 -0.15105225 1.2312062
-0.092450559 -0.15259911 1.2347267
-0.087951593 -0.15475027 1.2341161
0.21985902 -0.27172318 1.2498245
0.22589068 -0.2720463 1.2478557
0.23511204 -0.27316198 1.2460885
0.24441402 -0.27254134 1.2471104
0.25240332 -0.2715584 1.2490665
0.21750212 -0.26743749 1.2466618
0.22558646 -0.26823896 1.2441231
0.23638497 -0.2699942 1.2418718
0.24564086 -0.26807234 1.2433501
0.25403646 -0.26752466 1.2460204
0.19513008 -0.25120205 1.2431262
0.19262491 -0.24461395 1.2438741
0.1891305 -0.23257436 1.2454785
0.19009273 -0.2373347 1.2468613
0.18743771 -0.22485171 1.2441894
0.18567841 -0.21943812 1.2474319
0.21919724 -0.28052706 1.2589751
0.22452232 -0.28173187 1.2582667
0.23490238 -0.28376314 1.256837
0.24423157 -0.2831721 1.2572687
0.25434494 -0.28102827 1.2586755
0.21548434 -0.27396742 1.2554071
0.22498144 -0.27698958 1.2532393
0.23415419 -0.27841216 1.2515087
0.24605858 -0.27770022 1.2526215
0.25522316 -0.27558905 1.2540661
0.26134315 -0.27420664 1.2577529
0.20776294 -0.26473817 1.256802
0.21293561 -0.26772442 1.2522198
0.25826693 -0.26954496 1.2501804
0.2640259 -0.26742095 1.2561005
0.20318758 -0.2599439 1.258298
0.19077492 -0.24270181 1.251336
0.18821409 -0.2344183 1.255348
0.18651262 -0.22607693 1.2530364
0.31674421 -0.30275893 1.2685803
0.32489607 -0.30316201 1.2681354
0.33476982 -0.30291265 1.2677759
0.34494182 -0.30324519 1.267747
0.35483453 -0.30277702 1.2672604
0.36386096 -0.30316761 1.26729
0.2187649 -0.29206833 1.2696489
0.22622925 -0.29258418 1.268159
0.23536146 -0.29363573 1.2665162
0.24424924 -0.29349521 1.2668084
0.25432035 -0.29265365 1.26846
0.30892932 -0.29291192 1.2683406
0.31462267 -0.2944901 1.264993
0.32479644 -0.2940287 1.263299
0.33495128 -0.29393935 1.2629144
0.3448472 -0.29365957 1.2624847
0.35477239 -0.29427052 1.2625005
0.3633343 -0.29499742 1.2625691
0.20953132 -0.28166553 1.2692209
0.21551381 -0.28510153 1.2658259
0.22436772 -0.28696772 1.2636865
0.23493981 -0.28784698 1.2611899
0.24668561 -0.28729346 1.262087
0.25573161 -0.2864168 1.263996
0.26523754 -0.28524303 1.2673053
0.27145904 -0.28176785 1.2696831
0.30815902 -0.28465468 1.2681693
0.31461495 -0.28497925 1.2636082
0.32453647 -0.2846815 1.2622885
0.33464614 -0.28456324 1.2617639
0.34474704 -0.28444517 1.2612402
0.3550379 -0.28465939 1.2607071
0.3626847 -0.28537276 1.260312
0.20672187 -0.27395576 1.2674534
0.21207926 -0.27686244 1.262973
0.26617518 -0.27552703 1.2641656
0.27302703 -0.27417123 1.2684479
0.30787608 -0.27496937 1.267995
0.3143352 -0.27520293 1.2635007
0.32453233 -0.27556816 1.2622721
0.33464184 -0.27545372 1.2617481
0.34474263 -0.27533934 1.2612245
0.35483539 -0.2752251 1.2607009
0.36267951 -0.27513629 1.2602941
0.2039237 -0.26603061 1.2644464
0.26983011 -0.26527601 1.2620641
0.27385494 -0.26666719 1.267132
0.3088868 -0.2677021 1.2681657
0.31472787 -0.265183 1.2654421
0.32493192 -0.26564312 1.2638271
0.33500978 -0.26549789 1.2631357
0.34487605 -0.26553512 1.2624077
0.3549118 -0.26502937 1.2619371
0.36257586 -0.26560682 1.2611518
0.20145114 -0.25835824 1.2616411
0.3162778 -0.25828671 1.2687479
0.32494807 -0.25744012 1.2683393
0.33525404 -0.25680423 1.2678614
0.34499526 -0.25593603 1.2675637
0.35488689 -0.25522411 1.2671636
0.36203626 -0.25483909 1.2667997
0.086522363 -0.31263438 1.2788123
0.094582617 -0.31258446 1.2786081
0.10551088 -0.31371236 1.2790236
0.11536744 -0.31380048 1.2788603
0.1245741 -0.3137432 1.2786269
0.13492744 -0.31367868 1.2783639
0.14527668 -0.31361413 1.2781007
0.15447235 -0.31355676 1.2778671
0.16363695 -0.31356192 1.2784098
0.31570226 -0.3134028 1.2762989
0.32523212 -0.3138974 1.2752241
0.33482802 -0.31344846 1.2746029
0.34453946 -0.31238317 1.2730842
0.35491934 -0.31242186 1.2732402
0.36532003 -0.31247646 1.273461
0.085143827 -0.30490994 1.2754456
0.09469942 -0.30491528 1.2750094
0.10517654 -0.30620512 1.274982
0.11497748 -0.30584317 1.2745379
0.12504056 -0.30555817 1.2741064
0.13527907 -0.30592072 1.274014
0.14476365 -0.30561566 1.2735877
0.15506378 -0.30553699 1.2732589
0.16552061 -0.3050476 1.2747401
0.17466938 -0.30157334 1.2788713
0.18463945 -0.30119348 1.2792177
0.19495708 -0.30108809 1.2787701
0.20602314 -0.30153653 1.2787129
0.2153171 -0.30223101 1.2777433
0.22442526 -0.30352476 1.2768812
0.23477909 -0.30383325 1.2757596
0.24459206 -0.30366439 1.2755874
0.25552407 -0.30346951 1.2764285
0.26473501 -0.30287021 1.2774312
0.27526471 -0.30223915 1.2777784
0.28516558 -0.30345434 1.2783166
0.29514316 -0.30321547 1.2780042
0.30545169 -0.30372718 1.2771277
0.3140744 -0.30677092 1.2727578
0.32568055 -0.30847925 1.2711976
0.33479384 -0.30842322 1.2709665
0.34504223 -0.30836019 1.2707069
0.3552866 -0.30829719 1.2704474
0.36438912 -0.30824122 1.2702167
0.085095227 -0.29438436 1.2747182
0.095716812 -0.29477984 1.2741683
0.1057056 -0.29528701 1.2736514
0.1148546 -0.29517701 1.273177
0.12513894 -0.29505336 1.2726437
0.13541496 -0.2949298 1.2721107
0.14454189 -0.29482007 1.2716373
0.15480135 -0.29469675 1.2711054
0.16511756 -0.29476476 1.2724442
0.17519599 -0.29506543 1.2776674
0.184383 -0.29501361 1.2774422
0.1946279 -0.29482248 1.2766132
0.20477511 -0.29451147 1.2752615
0.21404454 -0.29472741 1.2730856
0.22491141 -0.29720518 1.2720207
0.234357 -0.29896843 1.27139
0.24612729 -0.29888546 1.2713618
0.25459871 -0.29755205 1.2721033
0.26512706 -0.29496974 1.2722757
0.27529824 -0.29421774 1.2731059
0.28480163 -0.29399139 1.2730055
0.29485178 -0.29376683 1.2728187
0.30439422 -0.29504913 1.2726175
0.31061921 -0.29915723 1.2705693
0.085094124 -0.28518122 1.2747018
0.095403247 -0.28506163 1.2741671
0.10570404 -0.28494212 1.2736328
0.11485292 -0.28483593 1.2731586
0.12513711 -0.28471661 1.272625
0.13541299 -0.2845974 1.2720922
0.14453977 -0.28449148 1.2716187
0.1547991 -0.28437245 1.2710867
0.16535234 -0.28476742 1.272853
0.17539524 -0.2849631 1.2777954
0.18439239 -0.28465629 1.2775069
0.19460945 -0.28558248 1.2764949
0.20508008 -0.28510064 1.2731978
0.21195534 -0.28757182 1.2700242
0.26925191 -0.28987545 1.2700777
0.27572122 -0.28473082 1.2712232
0.2845532 -0.28455314 1.2718954
0.29484299 -0.28451785 1.2717372
0.30366552 -0.2853184 1.2711246
0.085525259 -0.27590454 1.277318
0.094458207 -0.27530795 1.2769296
0.10476375 -0.27514604 1.2761785
0.11505874 -0.27498704 1.2754409
0.12493216 -0.27510908 1.2746147
0.13511579 -0.27440965 1.2742162
0.14474222 -0.27454764 1.2734007
0.15499495 -0.27439588 1.272696
0.16559789 -0.27483645 1.2747411
0.17490314 -0.27715242 1.2783371
0.18484531 -0.27585143 1.2784635
0.19477816 -0.27538022 1.2763579
0.20259401 -0.27629 1.2719998
0.27780542 -0.27589515 1.2707692
0.28457481 -0.27539486 1.2719901
0.29485971 -0.27535567 1.2718098
0.30279747 -0.27527058 1.2714163
0.10620084 -0.26896614 1.2796202
0.1160848 -0.26840234 1.279135
0.12459738 -0.26765388 1.2788684
0.1354726 -0.26677427 1.2784835
0.14525926 -0.26630792 1.2779498
0.1547953 -0.26531368 1.2777406
0.16281383 -0.26566568 1.2781875
0.19700371 -0.26571351 1.2770978
0.20075294 -0.26499423 1.2716372
0.27816606 -0.26406667 1.2719166
0.28525478 -0.26569551 1.2750237
0.29500049 -0.26603034 1.2751267
0.30446425 -0.26474452 1.2736057
0.31062868 -0.26019451 1.2706082
0.19771639 -0.25766549 1.2779688
0.27967119 -0.25895482 1.2757949
0.28525978 -0.25873166 1.278484
0.29619098 -0.25887808 1.2792091
0.30624488 -0.25596231 1.2770844
0.31454077 -0.25389463 1.2718666
0.32508206 -0.25219032 1.271351
0.3339932 -0.25183192 1.2708277
0.34496287 -0.25098667 1.270416
0.30989024 -0.2499858 1.277012
0.31494606 -0.24747621 1.2759624
0.3251484 -0.24651077 1.2756137
0.33497709 -0.24607103 1.275009
0.34508711 -0.24572513 1.2744411
0.35499099 -0.24494553 1.274256
0.36129984 -0.2444371 1.2741452
0.086945057 -0.32343781 1.2850599
0.095044613 -0.32338583 1.2848536
0.10473254 -0.32311505 1.2844859
0.11506215 -0.32350174 1.2846552
0.12515619 -0.32332289 1.2845999
0.13485739 -0.32311031 1.2844613
0.14522116 -0.32356539 1.2849013
0.15530808 -0.32336983 1.2847794
0.16363794 -0.32277468 1.2844641
0.31809235 -0.32157588 1.2868949
0.32494694 -0.32146502 1.2864512
0.33439621 -0.3216238 1.2870867
0.34503812 -0.32180268 1.2878025
0.35569203 -0.32198232 1.2885214
0.36517248 -0.3221423 1.2891617
0.37228873 -0.32226235 1.2896421
0.08668039 -0.31667331 1.2811481
0.094755337 -0.31662264 1.280943
0.10440809 -0.31746095 1.2812186
0.11557806 -0.31784004 1.2811952
0.12480143 -0.31778178 1.2809603
0.1351736 -0.31771624 1.2806962
0.14554167 -0.31765077 1.2804322
0.15475407 -0.31759256 1.2801976
0.1662025 -0.31599057 1.2811931
0.17452271 -0.31425226 1.2854295
0.18566324 -0.31330767 1.28631
0.19491293 -0.31325388 1.2860889
0.20478651 -0.31304529 1.2857617
0.21505652 -0.31324524 1.2855238
0.22513323 -0.31449392 1.2864035
0.23481943 -0.31425798 1.2861682
0.24486017 -0.31449428 1.2864062
0.25453147 -0.3144955 1.2864101
0.26500082 -0.31292692 1.2852712
0.27507252 -0.31337962 1.2865965
0.28492355 -0.31156242 1.2839028
0.29431254 -0.31169289 1.2844404
0.30578703 -0.31241199 1.2846702
0.31288645 -0.31675345 1.2845957
0.33723557 -0.31760192 1.2802353
0.34429225 -0.31771898 1.2807074
0.35488674 -0.31789482 1.2814158
0.3654927 -0.31807089 1.2821257
0.37139007 -0.31816909 1.2825215
0.17614859 -0.30676135 1.2823136
0.18508686 -0.30655238 1.2823175
0.19471733 -0.30626705 1.2818674
0.20470211 -0.30683276 1.2820022
0.21458115 -0.30774954 1.2818019
0.22526273 -0.30843779 1.2805474
0.23561056 -0.30837265 1.280277
0.24485075 -0.30837336 1.28028
0.25525278 -0.30838221 1.2803167
0.26653168 -0.30814147 1.2812351
0.27454343 -0.30756173 1.2810198
0.28438687 -0.3086639 1.2814863
0.29473433 -0.30860442 1.2812393
0.30391559 -0.30853805 1.2809638
0.083146304 -0.27138054 1.2801186
0.17564231 -0.27270716 1.2809281
0.1841664 -0.27197441 1.2807413
0.19058873 -0.27144456 1.2804205
0.079955623 -0.26420063 1.2845153
0.085414089 -0.26495293 1.2836348
0.094894454 -0.26500684 1.282827
0.10481648 -0.26423758 1.2824568
0.11508686 -0.26328152 1.2821655
0.12488485 -0.26248881 1.2818189
0.13467006 -0.26182523 1.2813989
0.14559403 -0.26114503 1.2808952
0.15139206 -0.26002452 1.281065
0.16666517 -0.26355204 1.281994
0.17503472 -0.26544625 1.2849516
0.18513805 -0.26515022 1.2845898
0.19276084 -0.26388958 1.2820708
0.08581052 -0.25842386 1.2879025
0.095253646 -0.25788191 1.287684
0.1044796 -0.25771648 1.2868571
0.11545777 -0.25689656 1.2867831
0.12531741 -0.25643477 1.2862598
0.13450874 -0.25626066 1.2853857
0.14493889 -0.25547546 1.2853343
0.15514934 -0.25560439 1.2844415
0.16382377 -0.25638407 1.2851161
0.17444345 -0.25933796 1.2891417
0.18559128 -0.2588214 1.2885013
0.19410688 -0.25593281 1.2850301
0.28822854 -0.25448635 1.2831486
0.29448479 -0.25369847 1.2835196
0.30309772 -0.25277376 1.2823999
0.29759783 -0.24993575 1.2886331
0.30643949 -0.24775203 1.2857507
0.3148064 -0.24253172 1.2839203
0.32495525 -0.24104568 1.2839437
0.33525452 -0.24161488 1.2814945
0.34424418 -0.24143337 1.2805319
0.31756485 -0.23846464 1.2894648
0.32549185 -0.23830692 1.288612
0.33473784 -0.2390981 1.2859279
0.34469944 -0.23792209 1.2865494
0.35484341 -0.23771979 1.2854584
0.3619895 -0.23722696 1.2852964
0.086717695 -0.33398002 1.2990174
0.094962671 -0.33412582 1.2995846
0.10497916 -0.3301 1.2929997
0.11436738 -0.33026391 1.2936419
0.12494044 -0.33044842 1.2943646
0.1355249 -0.33063316 1.2950882
0.14494345 -0.33079749 1.295732
0.15437135 -0.33096203 1.2963765
0.16262831 -0.33110616 1.2969409
0.087401174 -0.32979304 1.2917974
0.095600255 -0.32993621 1.2923582
0.16790994 -0.32649231 1.2925696
0.17508191 -0.32234001 1.2955654
0.18499862 -0.32199112 1.2979279
0.19440231 -0.32205158 1.2981718
0.20503707 -0.3222003 1.2987711
0.21531999 -0.32181254 1.2972081
0.22557478 -0.32229647 1.2956166
0.23550524 -0.32325265 1.2952932
0.24468367 -0.32378349 1.2957143
0.25419798 -0.32229671 1.2951156
0.26450056 -0.32184505 1.2973391
0.31516734 -0.32334015 1.29395
0.32440114 -0.32556766 1.2935299
0.3350912 -0.32575014 1.2942547
0.3457931 -0.32593301 1.2949815
0.17696883 -0.31784511 1.2906018
0.18518619 -0.31796035 1.2910697
0.19576129 -0.3181116 1.2916838
0.20516998 -0.31824613 1.2922301
0.21555266 -0.31808928 1.2915933
0.25955799 -0.31775483 1.2902353
0.2659274 -0.31841019 1.2928963
0.27595729 -0.31922099 1.2961885
0.28531983 -0.3172133 1.2932881
0.29546121 -0.3176558 1.2945626
0.30506152 -0.31821546 1.2956551
0.084587418 -0.25444415 1.2949017
0.095361434 -0.25336906 1.2952327
0.10505704 -0.25330189 1.2939702
0.11390028 -0.25277001 1.2936342
0.12484346 -0.2520209 1.2933751
0.13522907 -0.25180554 1.2922699
0.14385565 -0.25110424 1.2922574
0.15497568 -0.25052604 1.2916765
0.16663036 -0.25241992 1.2939259
0.17527132 -0.25589195 1.2952636
0.18484674 -0.25547326 1.2949684
0.19237672 -0.25309581 1.2944055
0.10787046 -0.2497438 1.2997341
0.11483934 -0.24960099 1.2989908
0.12527806 -0.24938707 1.2978774
0.13633171 -0.24840644 1.298004
0.145116 -0.24810115 1.2972828
0.15498132 -0.24799699 1.2960591
0.16361818 -0.24835043 1.2973562
0.19550465 -0.24935623 1.297717
0.29503161 -0.24676506 1.2943777
0.30460405 -0.24474999 1.2937143
0.31082714 -0.24097833 1.2904674
0.30874434 -0.2397455 1.2963909
0.31434429 -0.23663339 1.2944995
0.32493821 -0.23576458 1.2930946
0.33555174 -0.23497842 1.2935801
0.34515303 -0.23351997 1.2950255
0.35521477 -0.2333968 1.292902
0.36193982 -0.23286921 1.2928501
0.087210566 -0.33823526 1.3064007
0.094317466 -0.33836254 1.3068923
0.10468715 -0.33642295 1.3039315
0.1150147 -0.33448046 1.300964
0.12446579 -0.33464763 1.301614
0.13510978 -0.33483586 1.3023463
0.14576532 -0.3350243 1.3030792
0.15524718 -0.33519197 1.3037314
0.1646307 -0.33455795 1.3035483
0.22661854 -0.33166888 1.3083917
0.23660824 -0.33266822 1.3065121
0.24471273 -0.33317646 1.3058749
0.25405359 -0.33189619 1.3074251
0.17343372 -0.32767311 1.3019053
0.18484187 -0.32612199 1.3050877
0.19546533 -0.32616788 1.3052714
0.20489828 -0.32618883 1.3053552
0.21561855 -0.32617486 1.3037252
0.22425632 -0.32776377 1.3038092
0.23236038 -0.32741749 1.3008795
0.24982765 -0.32723904 1.3001704
0.25603813 -0.32709616 1.3019327
0.26451984 -0.32707652 1.3048651
0.27349421 -0.32279202 1.3011564
0.084581211 -0.25022107 1.302218
0.092742674 -0.25005379 1.3013474
0.17564906 -0.25139254 1.3028836
0.18509828 -0.25121543 1.3021591
0.19154485 -0.25030094 1.3026335
0.084877804 -0.24756053 1.3067843
0.095544077 -0.24790694 1.3046679
0.10490474 -0.24755578 1.3039457
0.1156966 -0.2466833 1.3042319
0.12473337 -0.24593394 1.3044251
0.13417162 -0.24535465 1.3036124
0.14516504 -0.24446893 1.3035697
0.15507993 -0.24436787 1.3023347
0.16461574 -0.24574232 1.3033912
0.17079419 -0.24853499 1.3057032
0.1864953 -0.24905607 1.3084408
0.19322948 -0.24888627 1.3034405
0.29742262 -0.24334627 1.3031479
0.30443323 -0.24213476 1.3029625
0.30861357 -0.23911865 1.3057402
0.31454033 -0.23537831 1.3058974
0.32551691 -0.23385677 1.3026755
0.33317369 -0.2334564 1.3004453
0.34732169 -0.23272935 1.3095566
0.35497764 -0.23232909 1.3073044
0.36369815 -0.23187278 1.3047367
0.22843632 -0.34146547 1.3188769
0.23570871 -0.34194192 1.3167802
0.24466953 -0.34384844 1.3166037
0.25345659 -0.34176973 1.3169895
0.26065141 -0.3415843 1.3193358
0.21717727 -0.33229724 1.3155601
0.22449827 -0.33651629 1.3153362
0.23354059 -0.33650577 1.3119069
0.24441904 -0.33911195 1.3120708
0.25634235 -0.33654365 1.3129327
0.2645494 -0.3348369 1.3150334
0.21633562 -0.32982317 1.3104376
0.086854607 -0.24628858 1.3189044
0.095017605 -0.24586186 1.3166192
0.10431295 -0.24537593 1.3140171
0.11357161 -0.24489193 1.3114251
0.12976675 -0.24405673 1.3197033
0.13554983 -0.24375451 1.3180692
0.14477527 -0.24327239 1.3154621
0.15510954 -0.24273233 1.3125417
0.16464399 -0.24400054 1.312983
0.17632012 -0.2496895 1.3117684
0.18564451 -0.24896209 1.3162837
0.19363089 -0.24827671 1.3168281
0.29787338 -0.24328305 1.3155197
0.30356312 -0.24249545 1.314467
0.30977517 -0.23856249 1.3156655
0.31568569 -0.23492046 1.3165504
0.32529452 -0.2338807 1.3160353
0.33523235 -0.23336124 1.3131124
0.34293383 -0.23295867 1.3108472
0.22902486 -0.35133132 1.3291948
0.23541689 -0.35153174 1.3269309
0.2442383 -0.3543877 1.3271637
0.25379333 -0.35195878 1.3270358
0.26009315 -0.35118568 1.3286438
0.21912886 -0.34126627 1.3273574
0.22439025 -0.34501213 1.3250104
0.2346794 -0.34680328 1.3222141
0.24636094 -0.34891304 1.3218477
0.25608054 -0.3463442 1.3223586
0.26477259 -0.34486198 1.3250635
0.21642296 -0.33639738 1.3254706
0.26816905 -0.33729708 1.3211907
0.27356714 -0.33522171 1.3271333
0.082177684 -0.24653305 1.3202136
0.10531292 -0.24533473 1.3266139
0.11465827 -0.24484634 1.3239729
0.12396646 -0.24435988 1.3213425
0.15544054 -0.2427287 1.3254534
0.16361551 -0.24323452 1.3238771
0.17440227 -0.2490616 1.3241657
0.1824304 -0.24920392 1.3217459
0.30612597 -0.24180378 1.3204027
0.22584116 -0.37076831 1.3387628
0.23463959 -0.37247136 1.3372861
0.2452434 -0.37427762 1.3356051
0.25414702 -0.37407213 1.3369982
0.26567262 -0.37133718 1.3386356
0.22448409 -0.36448911 1.3378778
0.23482318 -0.36512306 1.3349012
0.24523136 -0.36544442 1.3325584
0.25503671 -0.36571231 1.3335357
0.26506147 -0.36462963 1.3351513
0.2723709 -0.36369741 1.3379256
0.22434077 -0.3552019 1.336017
0.23493998 -0.35734302 1.3328289
0.24508223 -0.3592144 1.3317475
0.25518569 -0.3577401 1.3322198
0.26487878 -0.35546237 1.3337648
0.27286768 -0.35496813 1.3383876
0.21646531 -0.34418228 1.3355713
0.22135204 -0.34887034 1.3335398
0.27312872 -0.34542763 1.3357249
0.21182767 -0.33700299 1.3341763
0.27727416 -0.33746228 1.3344102
0.22749156 -0.38077709 1.3485461
0.23583974 -0.38293734 1.3475832
0.24557799 -0.38465184 1.345839
0.25453585 -0.38362414 1.3463351
0.26491731 -0.38168553 1.348315
0.2187337 -0.3718476 1.3470491
0.22467852 -0.37560505 1.3448327
0.23498178 -0.37791061 1.3426808
0.24189186 -0.37856162 1.3407
0.25599036 -0.37823632 1.3416886
0.26429945 -0.37645897 1.3430561
0.27323261 -0.37402311 1.3461295
0.21568255 -0.36433056 1.3447222
0.27690122 -0.36536545 1.3433111
0.28189471 -0.36208659 1.3469044
0.20818222 -0.35549241 1.3495436
0.21468154 -0.35514233 1.3445374
0.27854741 -0.35520998 1.3418368
0.28435528 -0.35354337 1.3456067
0.20995525 -0.34102559 1.3453027
0.21233591 -0.34671989 1.3450322
0.27843317 -0.34622422 1.3419341
0.28390285 -0.34586528 1.3468257
0.20952334 -0.3379018 1.3425351
0.2836858 -0.33969244 1.3496497
0.22804508 -0.39111054 1.3590899
0.23488455 -0.39212829 1.3575177
0.24518192 -0.39469385 1.3562267
0.25356153 -0.39426044 1.3562104
0.26431766 -0.39169988 1.3577307
0.27112132 -0.39134708 1.3599119
0.21932855 -0.38229477 1.3582556
0.22478312 -0.38532832 1.3550394
0.23443054 -0.38711697 1.352476
0.24144319 -0.38899267 1.3517306
0.25600654 -0.3882758 1.3513566
0.2652939 -0.38654998 1.3531361
0.27353373 -0.38441303 1.355646
0.2153268 -0.37455314 1.3553739
0.22086777 -0.37950209 1.352674
0.27701437 -0.37626779 1.3527441
0.28186014 -0.37323132 1.3564888
0.2075457 -0.3645345 1.3560053
0.21183123 -0.36714789 1.3521112
0.28519207 -0.36583266 1.3544753
0.20498212 -0.35450622 1.3541576
0.28624654 -0.35933074 1.3502424
0.20642261 -0.34544039 1.355149
0.2882894 -0.34441787 1.35268
0.28555828 -0.3380309 1.3527453
0.29043862 -0.33823168 1.3584554
0.22488984 -0.39461088 1.3652601
0.2351149 -0.39701322 1.3625139
0.24322481 -0.39923355 1.3617051
0.25738335 -0.39866772 1.3618677
0.26640031 -0.39632046 1.3629493
0.27475953 -0.39427307 1.3657955
0.2153627 -0.38390028 1.3661562
0.22122917 -0.38838041 1.3624172
0.2784093 -0.38665473 1.3635522
0.2832953 -0.38362178 1.3673534
0.20774746 -0.37336078 1.3659195
0.21221575 -0.3776857 1.3637429
0.28643137 -0.3753989 1.364372
0.20513415 -0.36569604 1.3649304
0.20231521 -0.35497448 1.3647276
0.20163451 -0.34548572 1.3628992
0.29376879 -0.33801848 1.3625333
0.21685109 -0.39399922 1.375598
0.22275397 -0.39848244 1.3718076
0.27736682 -0.39871228 1.3726008
0.28281543 -0.3932122 1.3750105
0.20856512 -0.38361266 1.3761719
0.21367976 -0.38772368 1.3731512
0.2878179 -0.38582441 1.3752055
0.20639975 -0.37561062 1.3741755
0.2031014 -0.36442387 1.3756117
0.19986282 -0.35131165 1.3760858
0.20121686 -0.35574636 1.3740488
0.19927335 -0.34656358 1.3720272
0.20884332 -0.39267695 1.3862562
0.21383969 -0.39689767 1.3835429
0.28687748 -0.39723095 1.3838269
0.29118615 -0.392416 1.3853329
0.20679231 -0.38484836 1.3850938
0.21045828 -0.38978368 1.3804437
0.20430957 -0.3748821 1.3852065
0.20186323 -0.36498082 1.3855696
0.20065449 -0.35768846 1.3815366
0.20808454 -0.39479724 1.3937461
0.29261515 -0.39810729 1.3921314
0.2051255 -0.38382712 1.3949909
0.20266193 -0.37385798 1.3953581
0.20595029 -0.39289215 1.4049237
0.20388548 -0.38371333 1.4037824
0.20470567 -0.39366451 1.4153029
0.20407617 -0.39531866 1.4227694
